<?xml version="1.0" encoding="utf-8"?>
<!-- Generator: Adobe Illustrator 24.0.0, SVG Export Plug-In . SVG Version: 6.00 Build 0)  -->
<svg version="1.1" id="Capa_1" xmlns="http://www.w3.org/2000/svg" xmlns:xlink="http://www.w3.org/1999/xlink" x="0px" y="0px"
	 viewBox="0 0 200 161" style="enable-background:new 0 0 200 161;" xml:space="preserve">
<g>
	<g>
		<ellipse style="fill:#FF0043;" cx="100" cy="80.5" rx="99.5" ry="80.3"/>
		<path style="fill:#FFFFFF;" d="M180.5,80.4c-0.6,0.2-0.9,0.4-1.1,0.5c-0.2,0.1-0.4,0.5-0.9,1.1c-1.5,2.2-3.1,4.3-4.7,6.3
			c-1.6,2-3.4,3.9-5.3,5.7c-0.6,0.6-1.3,1.1-1.9,1.6c-0.7,0.5-1.3,0.9-2.1,1.3c-2.5,1.2-4.4,0.7-5.9-1.7c-0.4-0.5-0.7-1-0.9-1.6
			c-0.2-0.6-0.5-1.2-0.8-1.8c1.7-0.2,3-0.4,3.9-0.7c0.9-0.3,1.8-0.7,2.6-1.4c2.6-2.1,4.5-4.5,5.7-7.2c1.2-2.7,1.7-5.8,1.3-9.2
			c-0.1-1.3-0.6-2.5-1.6-3.6c-0.9-1.1-2-1.7-3.2-1.9c-1.4-0.2-2.7-0.2-4-0.1c-1.3,0.1-2.6,0.6-3.8,1.3c-1.2,0.7-2.3,1.6-3.3,2.5
			c-1,0.9-1.9,2-2.6,3.1c-1.8,3-3.1,6.1-3.8,9.2c-0.3,1.2-0.5,2.5-0.5,3.8c-0.6,0.9-1.1,1.9-1.7,2.8c-1,1.7-2,3.4-3.1,5
			c-0.9,1.5-2,1.5-3.1,0c-0.7-0.9-1.2-2-1.7-3.3c-0.4-1.3-0.7-2.6-0.9-4.2c-0.2-1.5-0.4-3.1-0.5-4.6c-0.1-1.6-0.2-3.1-0.3-4.7
			c-0.1-1.6-0.1-3-0.2-4.4c0.9-0.2,1.7-0.3,2.4-0.4c0.7-0.1,1.5-0.2,2.2-0.4c0.8-0.2,1.5-0.4,2.2-0.7c0.7-0.3,1.3-0.8,1.9-1.3
			c0.6-0.6,0.9-1.1,0.8-1.7c-0.1-0.6-0.6-1-1.4-1.2c-0.8-0.3-1.7-0.5-2.5-0.4c-0.8,0-1.7,0.1-2.6,0.2c-0.5,0.1-1,0.2-1.6,0.2
			c-0.5,0-1.1,0.1-1.7,0.1c-0.1-0.3-0.1-0.5-0.1-0.7c0-0.2,0-0.4,0-0.6c-0.1-2.5-0.1-5-0.1-7.5c0-2.5-0.1-5-0.2-7.5
			c0-0.3,0-0.6,0-0.9c0-0.3-0.1-0.6-0.2-0.9c-0.2-0.7-0.6-1.1-1.1-1.2c-0.5-0.1-1,0.1-1.4,0.7c-0.4,0.4-0.7,0.9-1,1.4
			c-0.3,0.5-0.5,1-0.6,1.6c-0.4,1.5-0.8,3.1-1.1,4.6c-0.3,1.5-0.7,3.1-1,4.6c-0.3,1.2-0.5,2.3-0.6,3.5c-0.1,1.2-0.3,2.4-0.5,3.6
			c-0.7,0.1-1.4,0.1-2.1,0.1c-0.7,0-1.4,0.1-2.1,0.2c-0.8,0.1-1.3,0.4-1.6,1c-0.3,0.6-0.2,1.1,0.3,1.8c0.3,0.4,0.6,0.7,1,0.9
			c0.4,0.2,0.8,0.4,1.2,0.6c0.4,0.2,0.9,0.4,1.4,0.4c0.5,0.1,1,0.2,1.5,0.4v1.3c-0.1,1.3-0.2,2.6-0.2,4.1c0,0.8,0,1.6,0,2.4
			c-0.3,0.3-1.1,1.1-1.1,1.2c-0.1,0.1-0.1,0.1-0.2,0.2c-0.2,0.3-0.3,0.5-0.4,0.7c-0.1,0.2-0.2,0.4-0.4,0.7c-1,1.7-2.1,3.4-3.1,5
			c-1,1.7-2,3.4-3.1,5c-0.9,1.5-2,1.5-3.1,0c-0.7-0.9-1.2-2-1.7-3.3c-0.4-1.3-0.7-2.6-0.9-4.2c-0.2-1.5-0.4-3.1-0.5-4.6
			c-0.1-1.6-0.2-3.1-0.3-4.7c-0.1-1.6-0.1-3-0.2-4.4c0.9-0.2,1.7-0.3,2.4-0.4c0.7-0.1,1.5-0.2,2.2-0.4c0.8-0.2,1.5-0.4,2.2-0.7
			c0.7-0.3,1.3-0.8,1.9-1.3c0.6-0.6,0.9-1.1,0.8-1.7c-0.1-0.6-0.6-1-1.4-1.2c-0.8-0.3-1.7-0.5-2.5-0.4c-0.8,0-1.7,0.1-2.6,0.2
			c-0.5,0.1-1,0.2-1.6,0.2c-0.5,0-1.1,0.1-1.7,0.1c-0.1-0.3-0.1-0.5-0.1-0.7c0-0.2,0-0.4,0-0.6c-0.1-2.5-0.1-5-0.1-7.5
			c0-2.5-0.1-5-0.2-7.5c0-0.3,0-0.6,0-0.9c0-0.3-0.1-0.6-0.2-0.9c-0.2-0.7-0.6-1.1-1.1-1.2c-0.5-0.1-1,0.1-1.4,0.7
			c-0.4,0.4-0.7,0.9-1,1.4c-0.3,0.5-0.5,1-0.6,1.6c-0.4,1.5-0.8,3.1-1.1,4.6c-0.3,1.5-0.7,3.1-1,4.6c-0.3,1.2-0.5,2.3-0.6,3.5
			c-0.1,1.2-0.3,2.4-0.5,3.6c-0.7,0.1-1.4,0.1-2.1,0.1c-0.7,0-1.4,0.1-2.1,0.2c-0.8,0.1-1.3,0.4-1.6,1c-0.3,0.6-0.2,1.1,0.3,1.8
			c0.3,0.4,0.6,0.7,1,0.9c0.4,0.2,0.8,0.4,1.2,0.6c0.4,0.2,0.9,0.4,1.4,0.4c0.5,0.1,1,0.2,1.5,0.4V76c-0.1,1.3-0.2,2.6-0.2,4.1
			c0,1.4,0,2.9,0.1,4.4c-1,1.3-1.9,2.6-2.9,3.8c-1.6,2-3.4,3.9-5.3,5.7c-0.6,0.6-1.3,1.1-1.9,1.6c-0.7,0.5-1.3,0.9-2.1,1.3
			C89,98,87,97.5,85.5,95.2c-0.4-0.5-0.7-1-0.9-1.6c-0.2-0.6-0.5-1.2-0.8-1.8c1.7-0.2,3-0.4,3.9-0.7c0.9-0.3,1.8-0.7,2.6-1.4
			c2.6-2.1,4.5-4.5,5.7-7.2c1.2-2.7,1.7-5.8,1.3-9.2c-0.1-1.3-0.6-2.5-1.6-3.6c-0.9-1.1-2-1.7-3.2-1.9c-1.4-0.2-2.7-0.2-4-0.1
			c-1.3,0.1-2.6,0.6-3.8,1.3c-1.2,0.7-2.3,1.6-3.3,2.5c-1,0.9-1.9,2-2.6,3.1c-1.8,3-3.1,6.1-3.8,9.2c-0.2,0.9-0.3,1.8-0.4,2.7
			c-0.7,1.5-1.5,2.9-2.4,4.4c-0.6,0.9-1.2,1.7-1.8,2.6c-0.6,0.8-1.3,1.6-2,2.5c-0.5,0.6-1.1,1-1.8,1.3c-1.3,0.6-2.3,0.3-2.8-1.1
			c-0.4-1.2-0.7-2.3-0.9-3.5c-0.4-2.1-0.6-4.3-0.7-6.4c0-2.1,0-4.3,0-6.5c0-0.4,0.1-0.8,0.3-1.1c0.2-0.3,0.4-0.6,0.7-0.8
			c0.9-0.7,1.7-1.4,2.6-2.1c0.8-0.7,1.6-1.4,2.3-2.2c2.1-2.1,3.7-4.5,4.8-7.1c1.1-2.6,2-5.3,2.7-8.1c0.4-1.7,0.6-3.4,0.6-5.1
			c0-1.7-0.2-3.4-0.6-5c-0.3-1-0.7-2-1.3-2.8c-0.6-0.8-1.4-1.4-2.5-1.7c-2.3-0.6-4.4-0.3-6.4,0.7c-3.3,1.8-5.6,4.4-7,7.8
			c-1.4,3.3-2.5,6.7-3.3,10.1c-0.8,3.4-1.3,6.9-1.6,10.5c-0.3,3.3-0.3,6.5-0.1,9.7c0.1,1.5,0.2,3.1,0.4,4.6
			c-0.5,1.2-1.1,2.4-1.6,3.6c-1.1,2.4-2.5,4.5-4.2,6.5c-0.5,0.5-1,0.7-1.5,0.6c-0.5-0.1-0.8-0.5-1.1-1.2c-0.3-0.8-0.5-1.8-0.5-2.8
			c0.1-2.7,0.3-5.3,0.8-7.9c0.5-2.6,0.9-5.1,1.4-7.7c0.5-2.1,0.8-4.4,0.9-6.7c0.1-1.4-0.2-2.3-1.1-2.8c-0.8-0.5-1.8-0.5-3,0.2
			c-0.4,0.3-0.8,0.5-1.2,0.8c-0.4,0.3-0.8,0.5-1.1,0.7c-0.6-0.3-1.1-0.6-1.6-0.9c-0.5-0.3-1-0.5-1.5-0.7c-1.8-0.7-3.6-0.8-5.2-0.4
			c-1.6,0.4-3.1,1.2-4.6,2.4c-7.1,6.1-10.3,13.9-9.5,23.3c0.1,1.4,0.4,2.8,1,4.1c0.6,1.3,1.3,2.5,2.4,3.6c1.3,1.2,2.6,1.8,4.1,1.9
			c1.5,0.1,2.9-0.4,4.2-1.5c0.4-0.4,0.8-0.8,1.3-1.2c0.4-0.4,0.8-0.8,1.2-1.3c0.5-0.6,0.9-1.2,1.4-1.8c0.4-0.7,0.9-1.3,1.4-2
			c0.4,0.6,0.7,1.2,0.9,1.8c0.3,0.6,0.6,1.2,1,1.7c1.7,2.4,3.7,3.6,5.9,3.7c2.3,0.1,4.3-1.1,6.2-3.4c1.4-1.7,2.6-3.5,3.6-5.4
			c0.3-0.6,0.6-1.2,0.9-1.8c0.2,1.2,0.5,2.4,0.8,3.5c0.4,1.3,0.9,2.5,1.7,3.7c0.6,1.2,1.5,2.1,2.5,2.8c1,0.7,2.1,1.1,3.3,1.3
			c1.1,0.2,2.3,0,3.4-0.4c1.1-0.4,2.1-1.1,3-2.1c2.1-2.4,3.9-5,5.5-7.8c0,0.1,0,0.2,0,0.3c0.2,1.2,0.6,2.4,1.1,3.5
			c0.5,1.2,1.2,2.2,2.1,3.1c0.9,0.9,1.9,1.7,3.1,2.3c1.2,0.6,2.6,0.9,4.3,1c1.8,0.1,3.5-0.2,5.1-0.8c1.6-0.7,3-1.6,4.3-2.9
			c1.2-1.2,2.4-2.4,3.5-3.7c1.2-1.3,2.2-2.6,3.2-3.9c0.9-1.2,1.7-2.4,2.4-3.7c0,0.2,0,0.3,0.1,0.5c0.2,1.5,0.4,2.8,0.7,4.1
			c0.4,1.4,0.8,2.7,1.3,3.9c0.5,1.2,1.2,2.4,2,3.6c1.5,2,3.2,3.1,5.1,3.3c2,0.2,3.9-0.6,5.7-2.2c0.7-0.6,1.2-1.2,1.6-1.9
			c0.9-1.7,1.9-3.4,2.8-5.1c0.9-1.7,2-3.3,2.9-5c0.3-0.6,0.8-1.5,1.1-2.2c0.1-0.1,0.2-0.3,0.3-0.4c0.1,0.7,0.1,1.5,0.2,2.2
			c0.2,1.5,0.4,2.8,0.7,4.1c0.4,1.4,0.8,2.7,1.3,3.9c0.5,1.2,1.2,2.4,2,3.6c1.5,2,3.2,3.1,5.1,3.3c2,0.2,3.9-0.6,5.7-2.2
			c0.7-0.6,1.2-1.2,1.6-1.9c0.9-1.7,1.9-3.4,2.8-5.1c0.3-0.5,0.5-1,0.8-1.5c0,0.2,0.1,0.4,0.1,0.6c0.2,1.2,0.6,2.4,1.1,3.5
			c0.5,1.2,1.2,2.2,2.1,3.1c0.9,0.9,1.9,1.7,3.1,2.3c1.2,0.6,2.6,0.9,4.3,1c1.8,0.1,3.5-0.2,5.1-0.8c1.6-0.7,3-1.6,4.3-2.9
			c1.2-1.2,2.4-2.4,3.5-3.7c1.2-1.3,2.2-2.6,3.2-3.9c1-1.5,2-3,2.9-4.6c0.9-1.6,1.8-3.1,2.7-4.7c0.3-0.4,0.5-0.9,0.6-1.3
			C181,81.3,180.9,80.9,180.5,80.4z M62.7,70.8c0-0.6,0.1-1.2,0.2-1.8c0.5-2.7,1-5.3,1.5-8c0.6-2.7,1.3-5.3,2.2-7.9
			c0.3-0.8,0.6-1.5,1-2.3c0.3-0.7,0.7-1.5,1.1-2.2c0.3-0.5,0.6-0.9,0.9-1.4c0.4-0.4,0.8-0.9,1.2-1.5c0.6,0.6,0.9,1.2,1.1,1.7
			c0.2,0.6,0.3,1.2,0.3,1.8c0.1,1.8,0,3.6-0.3,5.3c-0.3,1.7-0.8,3.4-1.3,5.1c-0.5,1.4-1,2.7-1.5,4c-0.6,1.3-1.1,2.6-1.7,3.9
			c-0.5,1-1.1,2-1.9,2.8c-0.8,0.8-1.7,1.7-2.8,2.6C62.6,72.2,62.7,71.4,62.7,70.8z M38.1,76.8c-0.5,1.4-0.9,2.8-1.2,4.2
			c-0.2,1-0.4,2.1-0.5,3.2c-0.1,1.1-0.3,2.2-0.4,3.2c-0.1,0.3-0.1,0.6-0.1,0.9c0,0.3-0.1,0.6-0.2,0.9c-0.7,1.4-1.4,2.7-2,4
			c-0.7,1.3-1.4,2.6-2.1,3.9c-0.3,0.4-0.6,0.8-1,1.3c-0.4,0.4-0.9,0.6-1.6,0.4c-0.6-0.2-0.9-0.5-1.1-1c-0.1-0.5-0.2-1-0.4-1.5
			c-0.3-0.9-0.5-1.9-0.4-2.8c0-0.9,0.1-1.9,0.2-2.9c0.5-2.8,1.3-5.5,2.4-8.1c1.1-2.6,2.6-5,4.4-7.2c0.4-0.4,0.8-0.8,1.3-1.2
			c0.4-0.4,0.9-0.7,1.3-1.1c0.5-0.3,1-0.5,1.6-0.7c0.6-0.1,1.3,0,2,0.4C39.3,74.1,38.6,75.4,38.1,76.8z M84,82.3
			c0.4-1.5,0.9-3,1.6-4.4c0.7-1.4,1.5-2.8,2.4-4c0.9-1.2,1.8-2,2.8-2.5c0.1,0.2,0.2,0.4,0.4,0.6c0.1,0.2,0.2,0.4,0.2,0.7
			c-0.1,0.6-0.1,1.1-0.1,1.7c0,0.6-0.1,1.1-0.2,1.7c-0.8,3.4-2.4,6.2-4.6,8.6c-0.7,0.9-1.7,1.4-2.8,1.6C83.5,85.1,83.6,83.8,84,82.3
			z M157,82.3c0.4-1.5,0.9-3,1.6-4.4c0.7-1.4,1.5-2.8,2.4-4c0.9-1.2,1.8-2,2.8-2.5c0.1,0.2,0.2,0.4,0.4,0.6c0.1,0.2,0.2,0.4,0.2,0.7
			c-0.1,0.6-0.1,1.1-0.1,1.7c0,0.6-0.1,1.1-0.2,1.7c-0.8,3.4-2.4,6.2-4.6,8.6c-0.7,0.9-1.7,1.4-2.8,1.6
			C156.5,85.1,156.6,83.8,157,82.3z"/>
		<g>
			<path style="fill:#FFFFFF;" d="M55.2,115.9v10.6h-1.9v-10.6H55.2z"/>
			<path style="fill:#FFFFFF;" d="M64.8,122.2v4.3h-1.8v-4.2c0-0.7-0.2-1.3-0.5-1.7c-0.3-0.4-0.8-0.6-1.5-0.6
				c-0.7,0-1.2,0.2-1.6,0.7c-0.4,0.4-0.6,1.1-0.6,1.9v3.9h-1.7v-7.7h1.5l0.2,1c0.6-0.7,1.5-1.1,2.7-1.1c1,0,1.8,0.3,2.4,0.8
				C64.5,120.1,64.8,121,64.8,122.2z"/>
			<path style="fill:#FFFFFF;" d="M65.5,120.2v-1.4H67v-2.2h1.8v2.2h2v1.4h-2v4c0,0.3,0.1,0.5,0.2,0.6c0.1,0.1,0.4,0.2,0.7,0.2h1.3
				v1.4h-1.7c-0.8,0-1.4-0.2-1.7-0.5c-0.4-0.3-0.5-0.9-0.5-1.6v-4.2H65.5z"/>
			<path style="fill:#FFFFFF;" d="M73.3,119.2c0.6-0.3,1.3-0.5,2.1-0.5c0.8,0,1.5,0.2,2.1,0.5c0.6,0.3,1.1,0.7,1.4,1.3
				c0.4,0.6,0.5,1.2,0.5,2c0,0.2,0,0.4,0,0.6h-6.3v0.1c0,0.7,0.3,1.2,0.7,1.6c0.4,0.4,1,0.6,1.6,0.6c0.5,0,1-0.1,1.4-0.4
				c0.4-0.2,0.6-0.6,0.7-1h1.7c-0.2,0.8-0.6,1.4-1.2,1.9c-0.7,0.5-1.5,0.8-2.5,0.8c-0.9,0-1.6-0.2-2.3-0.5c-0.6-0.3-1.1-0.8-1.5-1.4
				c-0.4-0.6-0.5-1.3-0.5-2.1c0-0.8,0.2-1.5,0.5-2.1C72.2,120,72.7,119.5,73.3,119.2z M77,120.5c-0.4-0.3-0.9-0.5-1.5-0.5
				c-0.6,0-1.1,0.2-1.5,0.5c-0.4,0.3-0.7,0.8-0.7,1.3h4.5C77.6,121.2,77.4,120.8,77,120.5z"/>
			<path style="fill:#FFFFFF;" d="M85.5,120.3h-0.8c-0.7,0-1.2,0.2-1.6,0.7c-0.3,0.4-0.5,1-0.5,1.7v3.9h-1.7v-7.7h1.6l0.2,1.2
				c0.2-0.4,0.5-0.6,0.9-0.9s0.9-0.3,1.5-0.3h0.4V120.3z"/>
			<path style="fill:#FFFFFF;" d="M94.3,122.2v4.3h-1.8v-4.2c0-0.7-0.2-1.3-0.5-1.7c-0.3-0.4-0.8-0.6-1.5-0.6
				c-0.7,0-1.2,0.2-1.6,0.7c-0.4,0.4-0.6,1.1-0.6,1.9v3.9h-1.7v-7.7h1.5l0.2,1c0.6-0.7,1.5-1.1,2.7-1.1c1,0,1.8,0.3,2.4,0.8
				C94,120.1,94.3,121,94.3,122.2z"/>
			<path style="fill:#FFFFFF;" d="M103.8,126.5h-0.9c-0.5,0-0.9-0.1-1.2-0.3s-0.4-0.5-0.4-0.9c-0.6,0.9-1.5,1.3-2.7,1.3
				c-0.9,0-1.7-0.2-2.2-0.6c-0.6-0.4-0.8-1-0.8-1.7c0-0.8,0.3-1.4,0.9-1.8c0.6-0.4,1.5-0.6,2.6-0.6h2.1v-0.5c0-0.4-0.2-0.8-0.5-1
				c-0.3-0.2-0.8-0.4-1.3-0.4c-0.5,0-0.9,0.1-1.3,0.3c-0.3,0.2-0.5,0.5-0.6,0.8h-1.7c0.1-0.8,0.5-1.4,1.1-1.8
				c0.6-0.4,1.5-0.6,2.5-0.6c1.1,0,2,0.2,2.6,0.7c0.6,0.5,0.9,1.2,0.9,2.1v3.1c0,0.4,0.2,0.5,0.6,0.5h0.3V126.5z M99,123.1
				c-0.5,0-1,0.1-1.2,0.3c-0.3,0.2-0.4,0.5-0.4,0.9c0,0.3,0.1,0.6,0.4,0.8c0.3,0.2,0.7,0.3,1.1,0.3c0.7,0,1.3-0.2,1.7-0.5
				c0.4-0.4,0.6-0.8,0.6-1.5v-0.3H99z"/>
			<path style="fill:#FFFFFF;" d="M108.6,126.6c-0.8,0-1.5-0.2-2.2-0.5c-0.6-0.3-1.1-0.8-1.4-1.4c-0.3-0.6-0.5-1.3-0.5-2.1
				c0-0.8,0.2-1.5,0.5-2.1c0.3-0.6,0.8-1.1,1.5-1.4c0.6-0.3,1.4-0.5,2.2-0.5c1,0,1.9,0.3,2.5,0.8c0.7,0.5,1.1,1.2,1.2,2.1h-1.8
				c-0.1-0.4-0.4-0.8-0.7-1.1c-0.4-0.3-0.8-0.4-1.3-0.4c-0.7,0-1.3,0.2-1.7,0.7c-0.4,0.5-0.6,1.1-0.6,1.8c0,0.8,0.2,1.4,0.6,1.9
				c0.4,0.5,1,0.7,1.7,0.7c0.5,0,1-0.1,1.3-0.4c0.4-0.3,0.6-0.6,0.7-1.1h1.8c-0.2,0.9-0.6,1.6-1.2,2.1
				C110.5,126.4,109.7,126.6,108.6,126.6z"/>
			<path style="fill:#FFFFFF;" d="M115.8,116.7c0,0.3-0.1,0.5-0.3,0.7c-0.2,0.2-0.5,0.3-0.8,0.3s-0.6-0.1-0.8-0.3
				c-0.2-0.2-0.3-0.4-0.3-0.7s0.1-0.5,0.3-0.7c0.2-0.2,0.5-0.3,0.8-0.3s0.6,0.1,0.8,0.3C115.7,116.1,115.8,116.4,115.8,116.7z
				 M115.6,118.8v7.7h-1.7v-7.7H115.6z"/>
			<path style="fill:#FFFFFF;" d="M117.5,124.7c-0.4-0.6-0.5-1.3-0.5-2.1c0-0.8,0.2-1.5,0.5-2.1c0.4-0.6,0.8-1.1,1.5-1.4
				c0.6-0.3,1.4-0.5,2.2-0.5s1.6,0.2,2.2,0.5c0.6,0.3,1.1,0.8,1.5,1.4c0.4,0.6,0.5,1.3,0.5,2.1c0,0.8-0.2,1.5-0.5,2.1
				c-0.4,0.6-0.8,1.1-1.5,1.4c-0.6,0.3-1.4,0.5-2.2,0.5s-1.6-0.2-2.2-0.5C118.4,125.8,117.9,125.3,117.5,124.7z M123.7,122.6
				c0-0.8-0.2-1.4-0.7-1.9c-0.4-0.5-1-0.7-1.8-0.7s-1.3,0.2-1.8,0.7c-0.4,0.5-0.7,1.1-0.7,1.9c0,0.8,0.2,1.4,0.7,1.9
				c0.4,0.5,1,0.7,1.8,0.7s1.3-0.2,1.8-0.7C123.5,124,123.7,123.4,123.7,122.6z"/>
			<path style="fill:#FFFFFF;" d="M134.6,122.2v4.3h-1.8v-4.2c0-0.7-0.2-1.3-0.5-1.7c-0.3-0.4-0.8-0.6-1.5-0.6
				c-0.7,0-1.2,0.2-1.6,0.7c-0.4,0.4-0.6,1.1-0.6,1.9v3.9h-1.7v-7.7h1.5l0.2,1c0.6-0.7,1.5-1.1,2.7-1.1c1,0,1.8,0.3,2.4,0.8
				S134.6,121,134.6,122.2z"/>
			<path style="fill:#FFFFFF;" d="M144.1,126.5h-0.9c-0.5,0-0.9-0.1-1.2-0.3c-0.2-0.2-0.4-0.5-0.4-0.9c-0.6,0.9-1.5,1.3-2.7,1.3
				c-0.9,0-1.7-0.2-2.2-0.6c-0.6-0.4-0.8-1-0.8-1.7c0-0.8,0.3-1.4,0.9-1.8c0.6-0.4,1.5-0.6,2.6-0.6h2.1v-0.5c0-0.4-0.2-0.8-0.5-1
				c-0.3-0.2-0.8-0.4-1.3-0.4c-0.5,0-0.9,0.1-1.3,0.3c-0.3,0.2-0.5,0.5-0.6,0.8h-1.7c0.1-0.8,0.5-1.4,1.1-1.8
				c0.6-0.4,1.5-0.6,2.5-0.6c1.1,0,2,0.2,2.6,0.7c0.6,0.5,0.9,1.2,0.9,2.1v3.1c0,0.4,0.2,0.5,0.6,0.5h0.3V126.5z M139.3,123.1
				c-0.5,0-1,0.1-1.2,0.3c-0.3,0.2-0.4,0.5-0.4,0.9c0,0.3,0.1,0.6,0.4,0.8c0.3,0.2,0.7,0.3,1.1,0.3c0.7,0,1.3-0.2,1.7-0.5
				c0.4-0.4,0.6-0.8,0.6-1.5v-0.3H139.3z"/>
			<path style="fill:#FFFFFF;" d="M146.8,115.9v10.6h-1.7v-10.6H146.8z"/>
		</g>
	</g>
</g>
</svg>
