<?xml version="1.0" encoding="utf-8"?>
<!-- Generator: Adobe Illustrator 24.0.0, SVG Export Plug-In . SVG Version: 6.00 Build 0)  -->
<svg version="1.1" id="Capa_1" xmlns="http://www.w3.org/2000/svg" xmlns:xlink="http://www.w3.org/1999/xlink" x="0px" y="0px"
	 viewBox="0 0 250.2 168" style="enable-background:new 0 0 250.2 168;" xml:space="preserve">
<g>
	<ellipse style="fill:#003A56;" cx="125.7" cy="73.5" rx="80.4" ry="72.6"/>
	<circle style="fill:#F09700;" cx="125.7" cy="73.5" r="68.2"/>
	<g>
		<g>
			<path style="fill:#583600;" d="M100.2,75.3c-1,0-2.4-0.3-3.5-0.5c-0.3-0.1-0.5-0.1-0.8-0.1c0,0,0,0,0,0c-0.6,0-1.3-0.1-2.3-0.4
				l-2.6-0.5c-0.6-0.1-2-0.4-3.1-1.4l-1.6-0.5c-0.7-0.2-3-1-3.5-3.3c-0.2-1,0-1.8,0.2-2.4c0,0-0.1-0.1-0.1-0.1
				c-0.1-0.1-0.2-0.2-0.3-0.3c0,0-0.1-0.1-0.1-0.1c-0.4,0-0.9,0.1-1.3,0.1c0,0,0,0,0,0c-2.3,0-4.4-0.5-6.3-1.4
				c-2.7-1.4-4.8-3.9-5.4-6.7c-0.5-2.1-0.2-4.2,0.1-6c0.2-1,0.3-2,0.3-2.9c0-0.1,0-0.2,0-0.2c0-0.4-0.1-0.7-0.1-0.9
				c-0.1-0.2-0.3-0.4-0.5-0.6c-0.3-0.3-0.6-0.6-0.9-0.9c0,0-0.1-0.1-0.1-0.1c-0.2-0.1-0.3-0.3-0.5-0.4c-0.6-0.4-2.1-1.6-1.9-3.5
				c0.2-1.8,1.8-3,3.8-3c0.2,0,0.5,0,0.7,0.1c1.3,0.2,2.5,0.8,3.6,1.7c0.1,0.1,0.2,0.1,0.2,0.2c0.2,0.2,0.5,0.4,0.7,0.7
				c0.2,0.2,0.4,0.4,0.6,0.7c0.3,0.4,0.6,0.8,0.8,1.2c0.2,0.3,0.4,0.7,0.5,1c0.2,0.4,0.3,0.8,0.4,1.3c0.1,0.3,0.1,0.6,0.2,0.9
				c0,0.1,0,0.2,0,0.3c0.1,0.7,0.1,1.3,0.1,2.1c0,0.2,0,0.3,0,0.5c0,0.4-0.1,0.8-0.1,1.2c0,0,0,0,0,0c0,0.3-0.1,0.6-0.1,1
				c0,0-0.2,1-0.2,1c0,0.1,0,0.3-0.1,0.4c0,0.3-0.1,0.4-0.1,0.6c0,0.2,0,0.3,0,0.4c0,0,0,0.1,0,0.1c0.1,0.2,0.3,0.5,0.6,0.9
				c0.1,0.1,0.2,0.2,0.3,0.3l0.1,0.1c0.3,0.3,0.5,0.5,0.7,0.7c0.1,0.1,0.1,0.1,0.2,0.2c0.3,0.2,0.5,0.4,0.7,0.5
				c0.1,0,0.2,0.1,0.2,0.1c0.1,0,0.2,0.1,0.3,0.1c0,0,0.1,0,0.1,0c0,0,0,0,0,0c0.4,0,0.9-0.2,1.5-0.5c0.1-0.1,0.2-0.2,0.3-0.3
				c0.1-0.1,0.3-0.3,0.5-0.5l1.7-1.8c0.4-0.4,0.7-0.7,1.1-1.1c0.8-0.8,1.6-1.4,2.4-1.8c0.4-0.2,0.9-0.5,1.4-0.6c0,0,0.1,0,0.1,0
				c0.2-0.1,0.4-0.1,0.5-0.2c0.6-0.2,1.3-0.3,2-0.4c0,0,0,0,0,0c0.3,0,0.7-0.1,1-0.1c0.4,0,0.9,0,1.4,0l0.4,0c0.3,0,0.5,0,0.8,0
				c0.5,0,1,0,1.4,0.1c0.5,0,1,0.1,1.5,0.1c0.2,0,0.5,0,0.7,0c0,0,0.4,0,0.5,0c0.2-0.4,0.7-1.1,1.4-1.5c0,0,0,0,0,0
				c-0.1-0.2-0.1-0.4-0.2-0.6c-0.5-2,0.1-3.4,0.5-4.1l0.1,0c0,0,0,0,0-0.1l0,0c0,0,0-0.1,0.1-0.1c0,0,0.1-0.1,0.1-0.1
				c0-0.3,0-0.7,0-1c0.1-0.9,0.3-1.6,0.4-2.3c0.2-0.9,0.9-1.6,1.8-1.8c0.2,0,0.4-0.1,0.6-0.1c0.3,0,0.6,0.1,0.9,0.2
				c0.2-0.1,0.4-0.1,0.6-0.1c0.3,0,0.7,0.1,1,0.2c0.7,0.3,1.2,0.9,1.3,1.1l0.5,0.8c0.2,0,0.4,0.1,0.5,0.1c0,0,0,0,0,0
				c0.2,0,0.4,0.1,0.6,0.2c0.2,0,0.3,0.1,0.5,0.2c0,0,0,0,0,0c0.2,0.1,0.4,0.2,0.6,0.3c0,0,0,0,0,0c0.2,0.1,0.5,0.2,0.7,0.4
				c0.6,0.3,1.1,0.7,1.5,1.2c0.1,0.1,0.3,0.3,0.4,0.5c0,0,0.1,0.1,0.1,0.1c0-0.7,0.2-1.4,0.6-1.9c0.1-0.2,0.2-0.3,0.3-0.4
				c0.3-0.9,0.9-1.4,1.4-1.6c0.3-0.1,0.6-0.2,0.8-0.3c0.4-0.2,0.9-0.3,1.3-0.3c0.3,0,0.7,0.1,1,0.2c0.3,0.1,0.6,0.3,0.9,0.5
				c0.9,0.4,1.4,1.1,1.7,1.6c0.2,0.5,0.3,1.1,0.2,1.7c0,0.5-0.1,1-0.2,1.5c-0.1,0.4-0.1,0.9-0.2,1.3c0,0.1,0,0.1,0,0.2
				c0.4,0.2,0.8,0.4,1,0.8c0.5,0.3,0.9,0.8,1.2,1.4c0.3,0.7,0.2,1.6,0.1,2.1c-0.4,1.4-0.7,2.4-1.1,3.2l0,0c-0.1,0.3-0.3,0.8-0.7,1.3
				c-0.5,0.6-1,0.9-1.4,1c-0.1,0-0.1,0.1-0.2,0.1c0,0-0.1,0.1-0.4,0.4c-0.8,1-1.5,2.2-2.1,3.4c-0.2,0.4-0.5,0.9-0.9,1.4
				c-0.4,0.5-1,0.9-1.7,1.1c-0.7,0.3-1.5,0.4-2.5,0.4c-0.6,0-1.1,0-1.6-0.1l-1.1-0.1c-0.9,0.9-1.9,1.4-2.9,1.8
				c-1,0.4-2.1,0.9-3.1,1.3c-1.8,0.7-3.5,1.4-5.1,2.2c-0.3,0.1-0.6,0.3-0.9,0.4c0,0-0.7,0.4-0.9,0.4c0,0,0.1,0,0.1,0
				c0,0,0.2,0.1,0.3,0.1c0,0,0.1,0,0.1,0c0.2,0,0.5-0.1,0.9-0.1c0.1,0,0.1,0,0.2,0c1.3,0,2.5,0.6,3.3,1.6c0.7,0.9,1.1,2,1,3.1
				c0,0.3-0.1,0.5-0.2,0.8C103.1,74.2,102.3,75.3,100.2,75.3z"/>
		</g>
		<g>
			<path style="fill:#583600;" d="M162.2,78.6c-0.6,0-1.3,0-1.9,0c-11.3-0.3-11.9-1.6-12.4-2.8c-0.3-0.7-0.3-1.6,0.1-2.3h-7.9
				c-0.4,0-0.8-0.1-1.2-0.3c-1.6-0.9-2.4-2.9-1.9-4.8c0.4-1.4,1.3-2.5,2.5-3.1c-0.6-1.3-0.9-2.7-0.9-4.1c0-0.8,0.1-1.5,0.3-2.3
				c-0.1,0-0.1-0.1-0.2-0.1l-4.2,6.7c-0.1,0.2-0.3,0.4-0.5,0.6c-1.1,0.9-3.6,3.2-4.8,4.4c-0.9,1.4-2.2,2.4-3.8,2.7
				c-0.2,0-0.3,0.1-0.5,0.1c0,0-3,0.1-3.1,0.1c-0.4,0-0.7,0-1.1-0.1c0,0-2,0.1-2.1,0.1c-2.8,0-3.9-1.2-4.3-2.2
				c-0.6-1.4-0.1-2.9,1.2-4.2c0.9-0.9,2-1.2,3.1-1.5c0.2-0.1,0.5-0.2,0.7-0.2c2.2-3,3.5-4.8,3.7-5.4l3.7-11.8c0,0-0.2-0.3-0.2-0.3
				c-1.5-2.4-2.1-5.3-1.8-8.1c0-0.4-0.2-1.2-0.8-2.4c-0.5-1-1-1.9-1.4-2.5l-3.2,1.3c-0.1,0-0.1,0-0.2,0.1c-0.3,0.1-0.7,0.2-1.1,0.2
				c0,0,0,0,0,0c-0.1,0.4-0.2,0.8-0.4,1.1c-0.5,0.8-1.4,1.3-2.4,1.3c-1.3,0-2.5-0.9-3-2.2c-0.4-1.1-0.2-2.2,0-2.8
				c0-0.1,0.1-0.3,0.1-0.4c0.1-0.5,0.2-0.9,0.3-1.2c-1.4-0.3-2.6-1-3.5-2.1l-0.6-0.7c-0.6-0.8-0.8-1.7-0.7-2.6
				c0.1-0.9,0.7-1.7,1.4-2.2l6.1-4l0.1-0.3c0.1-0.1,0.1-0.3,0.2-0.4c0.5-1.2,1.3-2.2,2.2-3c-0.4-2-0.3-3.9,0.3-5.7
				c0.2-0.5,0.5-0.9,0.9-1.2c0.5-0.4,1.1-0.6,1.8-0.6c0.2,0,0.3,0,0.5,0c0.1,0,0.1-0.1,0.2-0.1c0.5-0.3,1-0.4,1.5-0.4
				c0.6,0,1.5,0.2,2.4,1.1c0.6,0.7,1.1,1.6,1.6,2.6c0.5,1,1.1,2.2,1.8,2.9c0.1,0,0.1,0.1,0.1,0.1c0.2,0.1,0.4,0.3,0.6,0.5l2.5,2.2
				l0.1,0.1c0,0,0.1,0.1,0.1,0.1l1.5,1.3c0,0,0.1,0.1,0.1,0.1l8.4,8.3l2.4,1.7c4.2,3,7.8,6.7,10.8,11l3.8,5.5
				c3.2,4.6,5.4,9.7,6.7,15.2l0.5,2c1,0.1,1.9,0.2,2.6,0.4c0,0,0.1,0,0.1,0c0.1,0,0.3,0.1,0.4,0.1c0.1,0,0.1,0,0.2,0
				c0.1,0,0.2,0.1,0.3,0.1c0.2,0.1,0.4,0.1,0.6,0.2c5.2,2.8,5.3,6.3,4.9,8.2c-0.3,1.5-1.4,3.7-4.5,5.1
				C170.5,77.8,168.7,78.6,162.2,78.6z"/>
		</g>
	</g>
	<path style="fill:#FAC600;" d="M70.1,44.2C70.1,44.2,70.1,44.2,70.1,44.2c0.4,0.4,0.8,0.7,1.2,1.1c0.3,0.4,0.6,0.8,0.9,1.2
		c0.3,0.6,0.3,1.2,0.4,1.8c0,0.1,0,0.2,0,0.3c0,2.8-1.1,5.6-0.5,8.3c0.5,2.2,2.1,4,4.1,5c2,1,4.3,1.3,6.5,1.1c0.4,0,0.8-0.1,1.2-0.1
		c0.1,0.2,0.3,0.4,0.4,0.6c0,0,0,0,0,0c0,0,0,0.1,0.1,0.1c0,0,0,0.1,0.1,0.1c0,0,0,0,0.1,0.1c0.1,0.1,0.1,0.2,0.2,0.2c0,0,0,0,0,0
		c0.1,0.1,0.1,0.2,0.2,0.3c0.1,0.1,0.1,0.2,0.2,0.2c0,0,0,0,0,0c0,0,0,0,0,0c0,0,0.1,0.1,0.1,0.1c0,0,0.1,0.1,0.1,0.1
		c0,0,0.1,0.1,0.1,0.1c0.1,0.1,0.2,0.2,0.3,0.3c0,0,0.1,0.1,0.1,0.1c0,0,0,0,0,0c0.1,0.1,0.2,0.1,0.3,0.2c0,0,0,0,0,0c0,0,0,0,0,0
		c0,0,0,0,0,0l0,0c-0.2,0.4-0.4,0.8-0.6,1.2c-0.2,0.4-0.3,0.9-0.2,1.3c0.2,0.8,1.1,1.2,1.9,1.5c0.8,0.3,1.6,0.5,2.3,0.8
		c0.3,0.7,1.2,0.9,2,1.1c0.9,0.2,1.8,0.3,2.7,0.5c0.8,0.2,1.5,0.4,1.9,0.3c0.1,0,0.2,0,0.2,0c1.6,0.3,4.4,1,4.7,0.3
		c0-0.5-0.1-1-0.5-1.3c-0.4-0.4-0.9-0.7-1.5-0.7c-0.4,0-0.7,0.1-1.1,0.1c-0.3,0-0.7-0.1-1-0.2c-0.5-0.1-1-0.3-1.5-0.5
		c-0.2-0.1-0.5-0.2-0.7-0.3c-0.3-0.1-0.7-0.2-1-0.4c-0.2-0.1-0.3-0.2-0.4-0.3c0-0.1,0-0.2,0.1-0.4c0.3-0.7,0.7-1.3,1.2-2
		c0,0,0,0,0,0c0,0,0,0,0.1,0c0,0,0.1,0,0.1,0c0,0,0,0,0,0c0,0,0.1,0,0.1,0c0.2-0.1,0.3-0.1,0.5-0.2c0.1,0,0.1-0.1,0.2-0.1
		c0.2-0.1,0.3-0.2,0.5-0.2c0,0,0,0,0,0c0,0,0,0,0,0c0.2-0.1,0.4-0.2,0.6-0.3c0,0,0,0,0,0c0.4-0.2,0.9-0.5,1.3-0.7
		c2.7-1.4,5.6-2.3,8.4-3.5c0.8-0.4,1.7-0.8,2.3-1.5c0-0.1,0.1-0.1,0.1-0.2c0,0,0.1-0.1,0.1-0.1c0,0,0.1-0.1,0.1-0.1c0,0,0,0,0,0
		c0,0,0,0,0,0c0,0,0-0.1,0.1-0.1c0,0,0-0.1,0.1-0.1c0.8,0.1,1.6,0.2,2.5,0.3c1,0.1,2,0.2,2.9-0.2c0.3-0.1,0.6-0.3,0.8-0.5
		c0.2-0.2,0.4-0.5,0.5-0.8c0.7-1.3,1.5-2.6,2.4-3.8c0.3-0.4,0.6-0.7,1-1c0.3-0.2,0.7-0.3,1-0.6c0.2-0.2,0.2-0.6,0.4-0.8
		c0.4-0.8,0.7-1.8,1-2.8c0-0.2,0.1-0.5,0-0.6c-0.1-0.2-0.4-0.3-0.5-0.2c0-0.2-0.2-0.5-0.4-0.6c-0.2-0.1-0.5,0-0.6,0.2
		c-0.2-0.2-0.6-0.2-0.7,0c-0.1,0.1-0.1,0.3-0.2,0.4c-0.1,0.1-0.1,0.1-0.2,0.2c-0.4,0.1-0.4,0.4-0.4,0.8c0,0.4-0.2,1-0.4,1.3
		c-0.1,0.2-0.3,0.4-0.4,0.6c-0.2,0.3-0.5,0.5-0.8,0.8c0-0.3,0.1-0.6,0.1-0.8c0.1-0.4,0.1-0.8,0.2-1.2c0-0.2,0.1-0.3,0.1-0.5
		c0.1-0.6,0.3-1.2,0.5-1.8c0-0.1,0.1-0.3,0.1-0.4c0.2-0.4,0.4-0.8,0.7-1.1c0.2-0.1,0.4-0.3,0.5-0.5c0.1-0.2,0.1-0.4,0.2-0.7
		c0.1-1,0.2-1.9,0.3-2.9c0-0.1,0-0.3,0-0.5c0-0.1-0.3-0.5-0.6-0.4c-0.2-0.2-0.1-0.3-0.4-0.4c-0.3-0.1-0.6,0-0.7,0.3
		c-0.2,0-0.3-0.2-0.6,0c-0.3,0.1-0.2,0.6-0.3,0.9c-0.1,0.2-0.3,0.1-0.5,0.3c-0.2,0.2-0.2,0.7-0.1,1c0,0.1,0,0.1,0,0.2
		c0,0.3,0.1,0.6,0,0.9c0,0.3-0.1,0.5-0.1,0.8c-0.1,0.4-0.2,0.8-0.4,1.2c0,0,0,0,0,0c-0.1,0.1-0.1,0.3-0.2,0.4
		c-0.1,0.1-0.1,0.2-0.2,0.4c-0.3,0.5-0.6,1-1,1.5c-0.1,0.2-0.3,0.4-0.4,0.6c-0.1,0.2-0.3,0.4-0.4,0.6c-0.1,0.2-0.2,0.3-0.3,0.5
		c-0.1,0.1-0.1,0.3-0.2,0.4c-0.2,0.3-0.4,0.6-0.7,0.8c-0.4,0.2-0.8,0.2-1.2,0.1c0-0.1,0-0.1,0-0.2c0-0.1,0-0.3,0-0.4
		c0-0.1,0-0.1,0-0.2c0-0.2,0-0.4,0.1-0.5c0-0.3,0.1-0.6,0.1-0.8c0.2-1.2,1.3-1.6,1.5-1.6c0.4-0.1,0.8-0.4,1-0.7
		c0.1-0.1,0.2-0.3,0.2-0.5c0.1-0.2,0.1-0.4,0.1-0.6c0-0.2-0.1-0.4-0.2-0.5c0,0,0,0-0.1-0.1c-0.2-0.2-0.4-0.2-0.6-0.3
		c-0.3-0.1-0.7-0.3-0.9-0.5c-0.3-0.3-0.6-0.6-0.8-0.9c-0.3-0.3-0.6-0.6-1-0.8c-0.1-0.1-0.3-0.2-0.5-0.2l0,0
		c-0.1-0.1-0.3-0.1-0.4-0.2l0,0c-0.1,0-0.2-0.1-0.4-0.1c-0.1,0-0.3-0.1-0.4-0.1l0,0c-0.5-0.1-0.9-0.1-1.4-0.1
		c-0.1-0.1-0.2-0.3-0.3-0.4c0,0,0,0,0,0c0,0,0,0,0,0c-0.3-0.4-0.6-0.8-0.9-1.2c-0.1-0.1-0.2-0.2-0.3-0.3c-0.2,0.4-0.3,0.9-0.4,1.3
		c-0.3-0.5-0.7-0.9-1.1-1.4c-0.2,0.6-0.3,1.3-0.4,2c0,0.5,0,0.9,0.1,1.4c0,0,0,0.1,0,0.1c-0.1,0.1-0.2,0.3-0.3,0.4l0,0c0,0,0,0,0,0
		c-0.1,0.1-0.1,0.2-0.2,0.3c0,0,0,0.1,0,0.1c-0.3,0.5-0.5,1.3-0.2,2.4c0,0.1,0.1,0.2,0.1,0.3c0,0.1,0.1,0.2,0.1,0.4
		c0,0.1,0.1,0.2,0.2,0.4c0,0.1,0.1,0.1,0.1,0.2c0,0.1,0,0.1,0.1,0.2c0,0,0,0.1,0,0.1c0,0.1,0,0.1,0,0.2c0,0.1-0.1,0.3-0.1,0.4
		c-0.1,0.2-0.2,0.5-0.2,0.7c-0.1,0-0.2,0.1-0.3,0.1c-0.1,0-0.2,0.1-0.3,0.1c0,0-0.1,0-0.1,0c0,0-0.1,0-0.1,0c0,0-0.1,0-0.1,0
		c0,0-0.1,0-0.1,0.1c-0.1,0-0.1,0.1-0.2,0.1c-0.3,0.2-0.4,0.4-0.6,0.7c0,0,0,0,0,0c0,0.1-0.1,0.2-0.1,0.2c-0.1,0.3-0.3,0.5-0.5,0.7
		c-0.2,0.1-0.4,0.1-0.7,0.2c-0.4,0-0.8,0-1.3,0c-0.3,0-0.5,0-0.8,0c-1,0-2-0.1-3-0.1c-0.2,0-0.5,0-0.7,0c-0.1,0-0.2,0-0.4,0
		c-0.4,0-0.8,0-1.2,0c-0.3,0-0.6,0-0.9,0.1l0,0c-0.5,0.1-1.1,0.2-1.6,0.3c-0.2,0-0.3,0.1-0.5,0.2l0,0c-0.4,0.1-0.7,0.3-1,0.5
		c-0.7,0.4-1.3,0.9-1.9,1.4c-0.4,0.3-0.7,0.7-1,1c-0.2,0.2-0.4,0.4-0.6,0.7c-0.4,0.4-0.7,0.7-1.1,1.1c-0.1,0.1-0.3,0.3-0.4,0.4
		c-0.1,0.1-0.3,0.3-0.4,0.4c0,0-0.1,0.1-0.1,0.1c-1.1,0.7-2.2,1.2-3.5,1.1c-0.3,0-0.6-0.1-0.9-0.2c-0.2-0.1-0.3-0.1-0.5-0.2
		c-0.4-0.2-0.8-0.5-1.2-0.8c-0.1-0.1-0.2-0.2-0.3-0.2c-0.3-0.3-0.6-0.5-0.9-0.8c0,0-0.1-0.1-0.1-0.1c-0.1-0.1-0.2-0.2-0.4-0.4
		c-0.5-0.6-1-1.2-1.2-1.9c0-0.1-0.1-0.2-0.1-0.3c0-0.3-0.1-0.6,0-0.8c0-0.3,0-0.6,0.1-0.9c0-0.2,0.1-0.4,0.1-0.5l0,0
		c0.1-0.3,0.1-0.6,0.1-0.9l0,0c0-0.3,0.1-0.6,0.1-0.9c0,0,0,0,0,0c0-0.4,0.1-0.7,0.1-1.1c0-0.1,0-0.3,0-0.4c0-0.6,0-1.1-0.1-1.7
		c0-0.1,0-0.1,0-0.2c0-0.2-0.1-0.4-0.1-0.7c-0.1-0.3-0.2-0.6-0.3-0.9c-0.1-0.3-0.2-0.5-0.4-0.8c-0.2-0.3-0.4-0.6-0.6-0.9
		c-0.1-0.2-0.3-0.3-0.4-0.5c-0.2-0.2-0.4-0.4-0.5-0.5c0,0,0,0,0,0c0,0-0.1-0.1-0.1-0.1c-0.7-0.6-1.5-1-2.4-1.2
		c-0.7-0.1-1.5,0.1-1.6,0.8c-0.1,0.5,0.5,1,0.9,1.3C69.7,43.8,69.9,44,70.1,44.2z"/>
	<path style="fill:#FAC600;" d="M121.9,71.1l3-0.1c1.2-0.3,1.9-1.1,2.4-1.9c0,0,0,0,0.1-0.1c0.6-0.6,3.6-3.5,5-4.6l5.5-8.7
		c1.3,0.8,2.7,1.4,4.2,2c-0.6,1.1-0.9,2.4-0.9,3.7c0,2.5,1.2,4.6,3.2,6.2c-0.3,0.1-0.6,0.2-0.8,0.4l-1.3-0.4c-2.8-0.4-3.5,2.8-2,3.7
		c0,0,2.7,0,3.6,0h12.8c0,0,0,0,0,0h2.3h0.9c0.7,0,1.4-0.3,1.9-0.8c0.1-0.1,0.2-0.2,0.3-0.3c0.3-0.4,0.5-0.9,0.5-1.4
		c0.8,0.4,1.6,0.7,2.4,0.9c0.9,0.3,2.5,1,2.5,1s0.8,1.4-7,1.9c-0.5,0-3.5-0.1-6.2,0.4c-1.7,0.3-3.2,0.8-3.9,1.8
		c-0.6,0.6,4.8,1.3,10.2,1.4c4,0.1,8-0.1,9.6-0.8c1.8-0.8,2.8-1.9,3.1-3.3c0.5-2.1-0.7-4-3.6-5.5c-0.1,0-0.1-0.1-0.2-0.1
		c-0.1,0-0.1,0-0.2,0c0,0-0.1,0-0.1,0c-0.1,0-0.2,0-0.3-0.1c0,0,0,0-0.1,0c-1-0.2-2.7-0.4-4.1-0.6l-0.9-3.7
		c-1.2-5.1-3.3-10-6.3-14.3l-3.8-5.5c-2.8-4-6.2-7.5-10.2-10.4l-2.6-1.9l-8.6-8.5l-0.2-0.2l-1.3-1.2c0,0,0,0,0,0l-0.1-0.1l-2.7-2.4
		l0,0c0-0.1-0.1-0.1-0.3-0.2l0,0c0,0,0,0,0,0c-0.1-0.1-0.2-0.1-0.2-0.1c-1.8-1.5-2.6-4.7-3.6-5.7c-0.3-0.3-0.5-0.4-0.8-0.2
		c-0.2,0.5-0.4,1-0.5,1.5c-0.6-0.8-1.2-1.4-1.7-1c-0.6,1.9-0.5,3.9,0.2,6c-0.2,0.1-0.4,0.2-0.6,0.4c-1,0.6-1.7,1.6-2.2,2.7
		c0,0.1-0.1,0.2-0.1,0.3l-0.4,1l-6.8,4.5c-0.4,0.3-0.5,0.9-0.2,1.3l0.2,0.3l0.4,0.5c0.8,1,2,1.5,3.2,1.3l5.3-0.8
		c0.4,0,0.7,0.2,0.9,0.5l0,0c0.2,0.4,0,0.9-0.4,1.1l-0.7,0.3c-0.4,0-0.8,0.1-1.2,0.2l0,0l0,0c-0.3,0.1-0.6,0.1-0.8,0.2
		c-0.2,0.1-0.5,0.2-0.7,0.3l-0.3-0.3l0,0.4c-0.3,0.2-0.6,0.4-1,0.7c-0.5,0.4-0.6,0.6-0.7,1.3c-0.1,0.7-0.4,1.5-0.2,2.1
		c0.2,0.4,0.7,0.7,0.9,0.4c0.2-0.3,0-2.4,0.2-2.9c0.1-0.1,0.1-0.3,0.2-0.4c0,0.1,0,0.3,0.1,0.4l0,0c0.1,0.1,0.3,0.2,0.5,0.3
		c0,0,0.1,0,0.1,0.1c0,0,0.1,0,0.1,0.1c0.1,0,0.2,0.1,0.3,0.1c0,0,0.1,0,0.1,0c0.2,0,0.4,0,0.5,0c0,0,0.1,0,0.1,0
		c0.2,0,0.4,0,0.5-0.1l4.8-2c0,0,0.1,0,0.2,0c0.6,0.3,1.9,2.3,2.8,4.4c0.6,1.3,1,2.6,1,3.5c-0.3,2.3,0.2,4.7,1.5,6.8l0.1,0.1
		c0.2,0.4,0.4,0.7,0.7,1l-4.1,13c-0.3,1-3.2,4.9-4.3,6.3l0,0c-0.5,0.8-3,0.9-3.8,1.8c-0.9,0.9-1.3,2.2,1.4,2.2L121,71
		C121.3,71.1,121.6,71.1,121.9,71.1z"/>
	<g>
		<g>
			<path style="fill:#BDC7DA;" d="M6.5,154.1h2.1l4.1,10.2h-1.9l-1-2.5H5.3l-1,2.5H2.4L6.5,154.1z M9.2,160.3l-1.7-4.4l-1.7,4.4H9.2
				z"/>
			<path style="fill:#BDC7DA;" d="M15.3,154.1v10.2h-1.7v-10.2H15.3z"/>
			<path style="fill:#BDC7DA;" d="M18.9,154.8c0,0.3-0.1,0.5-0.3,0.7c-0.2,0.2-0.4,0.3-0.7,0.3c-0.3,0-0.5-0.1-0.7-0.3
				c-0.2-0.2-0.3-0.4-0.3-0.7s0.1-0.5,0.3-0.7c0.2-0.2,0.4-0.3,0.7-0.3c0.3,0,0.5,0.1,0.7,0.3C18.8,154.3,18.9,154.5,18.9,154.8z
				 M18.7,156.8v7.5H17v-7.5H18.7z"/>
			<path style="fill:#BDC7DA;" d="M32.5,160v4.2h-1.7v-4.2c0-0.6-0.1-1.1-0.4-1.5c-0.3-0.3-0.7-0.5-1.2-0.5c-0.6,0-1,0.2-1.4,0.6
				s-0.5,0.9-0.5,1.6v4h-1.7v-4.2c0-0.7-0.1-1.2-0.4-1.5c-0.3-0.3-0.7-0.5-1.3-0.5c-0.6,0-1,0.2-1.4,0.6c-0.3,0.4-0.5,0.9-0.5,1.6v4
				h-1.7v-7.5h1.5l0.2,1c0.6-0.7,1.4-1.1,2.3-1.1c0.6,0,1.1,0.1,1.5,0.3c0.4,0.2,0.8,0.6,1,1c0.3-0.4,0.6-0.8,1.1-1
				c0.5-0.2,1-0.4,1.7-0.4c0.9,0,1.6,0.3,2.1,0.8C32.2,158,32.5,158.9,32.5,160z"/>
			<path style="fill:#BDC7DA;" d="M35.6,157.2c0.6-0.3,1.3-0.5,2-0.5c0.8,0,1.4,0.1,2,0.4c0.6,0.3,1.1,0.7,1.4,1.2
				c0.3,0.5,0.5,1.2,0.5,1.9c0,0.2,0,0.4,0,0.6h-6v0.1c0,0.7,0.3,1.2,0.7,1.5c0.4,0.4,0.9,0.6,1.6,0.6c0.5,0,1-0.1,1.3-0.3
				c0.4-0.2,0.6-0.6,0.7-1h1.7c-0.1,0.8-0.5,1.4-1.2,1.9c-0.6,0.5-1.4,0.7-2.4,0.7c-0.8,0-1.6-0.2-2.2-0.5c-0.6-0.3-1.1-0.8-1.4-1.3
				c-0.3-0.6-0.5-1.2-0.5-2c0-0.8,0.2-1.4,0.5-2C34.6,157.9,35,157.5,35.6,157.2z M39.2,158.4c-0.4-0.3-0.9-0.5-1.5-0.5
				c-0.6,0-1,0.2-1.4,0.5c-0.4,0.3-0.6,0.7-0.7,1.3h4.3C39.8,159.2,39.6,158.7,39.2,158.4z"/>
			<path style="fill:#BDC7DA;" d="M50.4,160.1v4.1h-1.7v-4c0-0.7-0.2-1.2-0.5-1.6s-0.8-0.6-1.4-0.6c-0.7,0-1.2,0.2-1.6,0.6
				c-0.4,0.4-0.6,1-0.6,1.8v3.8h-1.7v-7.5h1.5l0.2,1c0.6-0.7,1.5-1.1,2.6-1.1c0.9,0,1.7,0.3,2.3,0.8
				C50.1,158.1,50.4,158.9,50.4,160.1z"/>
			<path style="fill:#BDC7DA;" d="M51,158.2v-1.4h1.4v-2.1h1.7v2.1H56v1.4h-1.9v3.9c0,0.3,0.1,0.5,0.2,0.6s0.3,0.2,0.6,0.2h1.3v1.4
				h-1.6c-0.8,0-1.3-0.2-1.7-0.5c-0.3-0.3-0.5-0.8-0.5-1.5v-4.1H51z"/>
			<path style="fill:#BDC7DA;" d="M57.1,162.5c-0.3-0.6-0.5-1.2-0.5-2c0-0.7,0.2-1.4,0.5-2c0.3-0.6,0.8-1,1.4-1.3
				c0.6-0.3,1.3-0.5,2.1-0.5s1.5,0.2,2.1,0.5c0.6,0.3,1.1,0.8,1.4,1.3c0.3,0.6,0.5,1.2,0.5,2c0,0.8-0.2,1.4-0.5,2
				c-0.3,0.6-0.8,1-1.4,1.3c-0.6,0.3-1.3,0.5-2.1,0.5s-1.5-0.2-2.1-0.5C58,163.5,57.5,163.1,57.1,162.5z M63.1,160.5
				c0-0.7-0.2-1.3-0.6-1.8c-0.4-0.5-1-0.7-1.7-0.7c-0.7,0-1.3,0.2-1.7,0.7c-0.4,0.5-0.6,1.1-0.6,1.8c0,0.7,0.2,1.3,0.6,1.8
				c0.4,0.5,1,0.7,1.7,0.7c0.7,0,1.3-0.2,1.7-0.7C62.9,161.8,63.1,161.3,63.1,160.5z"/>
			<path style="fill:#BDC7DA;" d="M73.4,162.5l2.2-5.8h1.8l-3.6,8.6c-0.2,0.4-0.4,0.8-0.5,1c-0.2,0.2-0.3,0.4-0.6,0.5
				s-0.5,0.2-0.9,0.2h-1.8v-1.4h1.2c0.3,0,0.5,0,0.7-0.1c0.1-0.1,0.3-0.3,0.4-0.6l0.3-0.7l-3.1-7.5h1.8L73.4,162.5z"/>
			<path style="fill:#BDC7DA;" d="M85.9,164.3c-0.8,0-1.5-0.2-2.1-0.5c-0.6-0.3-1.1-0.8-1.4-1.3c-0.3-0.6-0.5-1.3-0.5-2
				s0.2-1.4,0.5-2c0.3-0.6,0.8-1,1.4-1.3c0.6-0.3,1.3-0.5,2.1-0.5c1,0,1.8,0.2,2.5,0.7c0.6,0.5,1,1.2,1.2,2h-1.7
				c-0.1-0.4-0.3-0.8-0.7-1c-0.3-0.3-0.8-0.4-1.3-0.4c-0.7,0-1.2,0.2-1.6,0.7c-0.4,0.5-0.6,1-0.6,1.8c0,0.7,0.2,1.3,0.6,1.8
				c0.4,0.5,1,0.7,1.6,0.7c0.5,0,1-0.1,1.3-0.4c0.3-0.3,0.6-0.6,0.7-1h1.7c-0.2,0.9-0.6,1.5-1.2,2C87.7,164.1,86.9,164.3,85.9,164.3
				z"/>
			<path style="fill:#BDC7DA;" d="M98.1,164.3h-1.5l-0.2-0.9c-0.6,0.7-1.4,1-2.5,1c-0.9,0-1.7-0.3-2.3-0.8c-0.6-0.5-0.9-1.4-0.9-2.6
				v-4.1h1.7v3.9c0,0.7,0.2,1.3,0.5,1.7c0.3,0.4,0.8,0.6,1.4,0.6c0.6,0,1.1-0.2,1.5-0.7c0.4-0.4,0.5-1,0.5-1.8v-3.7h1.7V164.3z"/>
			<path style="fill:#BDC7DA;" d="M101.6,154.8c0,0.3-0.1,0.5-0.3,0.7c-0.2,0.2-0.4,0.3-0.7,0.3s-0.5-0.1-0.7-0.3
				c-0.2-0.2-0.3-0.4-0.3-0.7s0.1-0.5,0.3-0.7s0.4-0.3,0.7-0.3s0.5,0.1,0.7,0.3S101.6,154.5,101.6,154.8z M101.4,156.8v7.5h-1.7
				v-7.5H101.4z"/>
			<path style="fill:#BDC7DA;" d="M110.8,164.3h-1.5l-0.2-1.1c-0.6,0.8-1.5,1.2-2.6,1.2c-0.7,0-1.4-0.2-2-0.5
				c-0.6-0.3-1-0.7-1.3-1.3c-0.3-0.6-0.5-1.3-0.5-2c0-0.8,0.2-1.4,0.5-2c0.3-0.6,0.8-1,1.4-1.3c0.6-0.3,1.2-0.5,1.9-0.5
				c0.6,0,1.1,0.1,1.5,0.3c0.4,0.2,0.8,0.5,1.1,0.8v-3.8h1.7V164.3z M109.1,160.6c0-0.7-0.2-1.4-0.6-1.8c-0.4-0.5-1-0.7-1.7-0.7
				s-1.3,0.2-1.7,0.7c-0.4,0.5-0.6,1.1-0.6,1.8c0,0.7,0.2,1.3,0.6,1.8c0.4,0.5,1,0.7,1.7,0.7s1.3-0.2,1.7-0.7
				C108.9,161.9,109.1,161.3,109.1,160.6z"/>
			<path style="fill:#BDC7DA;" d="M120.1,164.3h-0.9c-0.5,0-0.9-0.1-1.1-0.3c-0.2-0.2-0.3-0.5-0.3-0.9c-0.6,0.9-1.5,1.3-2.6,1.3
				c-0.9,0-1.6-0.2-2.2-0.6c-0.5-0.4-0.8-0.9-0.8-1.6c0-0.8,0.3-1.4,0.9-1.8c0.6-0.4,1.4-0.6,2.5-0.6h2v-0.5c0-0.4-0.2-0.7-0.5-1
				c-0.3-0.2-0.7-0.4-1.3-0.4c-0.5,0-0.9,0.1-1.2,0.3c-0.3,0.2-0.5,0.5-0.6,0.8h-1.7c0.1-0.7,0.4-1.3,1.1-1.7
				c0.6-0.4,1.4-0.6,2.5-0.6c1.1,0,1.9,0.2,2.5,0.7c0.6,0.5,0.9,1.1,0.9,2v2.9c0,0.3,0.2,0.5,0.5,0.5h0.3V164.3z M115.5,160.9
				c-0.5,0-0.9,0.1-1.2,0.3c-0.3,0.2-0.4,0.5-0.4,0.8c0,0.3,0.1,0.6,0.4,0.8c0.3,0.2,0.6,0.3,1.1,0.3c0.7,0,1.2-0.2,1.6-0.5
				c0.4-0.3,0.6-0.8,0.6-1.4v-0.3H115.5z"/>
			<path style="fill:#BDC7DA;" d="M128.8,164.3h-1.5l-0.2-1.1c-0.6,0.8-1.5,1.2-2.6,1.2c-0.7,0-1.4-0.2-2-0.5
				c-0.6-0.3-1-0.7-1.3-1.3c-0.3-0.6-0.5-1.3-0.5-2c0-0.8,0.2-1.4,0.5-2c0.3-0.6,0.8-1,1.3-1.3c0.6-0.3,1.2-0.5,1.9-0.5
				c0.6,0,1.1,0.1,1.5,0.3c0.4,0.2,0.8,0.5,1.1,0.8v-3.8h1.7V164.3z M127.1,160.6c0-0.7-0.2-1.4-0.6-1.8c-0.4-0.5-1-0.7-1.7-0.7
				c-0.7,0-1.3,0.2-1.7,0.7c-0.4,0.5-0.6,1.1-0.6,1.8c0,0.7,0.2,1.3,0.6,1.8c0.4,0.5,1,0.7,1.7,0.7c0.7,0,1.3-0.2,1.7-0.7
				C126.9,161.9,127.1,161.3,127.1,160.6z"/>
			<path style="fill:#BDC7DA;" d="M130.6,162.5c-0.3-0.6-0.5-1.2-0.5-2c0-0.7,0.2-1.4,0.5-2c0.3-0.6,0.8-1,1.4-1.3
				c0.6-0.3,1.3-0.5,2.1-0.5c0.8,0,1.5,0.2,2.1,0.5c0.6,0.3,1.1,0.8,1.4,1.3c0.3,0.6,0.5,1.2,0.5,2c0,0.8-0.2,1.4-0.5,2
				c-0.3,0.6-0.8,1-1.4,1.3c-0.6,0.3-1.3,0.5-2.1,0.5c-0.8,0-1.5-0.2-2.1-0.5C131.5,163.5,131,163.1,130.6,162.5z M136.6,160.5
				c0-0.7-0.2-1.3-0.6-1.8c-0.4-0.5-1-0.7-1.7-0.7c-0.7,0-1.3,0.2-1.7,0.7c-0.4,0.5-0.6,1.1-0.6,1.8c0,0.7,0.2,1.3,0.6,1.8
				c0.4,0.5,1,0.7,1.7,0.7c0.7,0,1.3-0.2,1.7-0.7C136.4,161.8,136.6,161.3,136.6,160.5z"/>
			<path style="fill:#BDC7DA;" d="M151.2,158.5c0.3,0.6,0.5,1.3,0.5,2c0,0.8-0.2,1.4-0.5,2c-0.3,0.6-0.8,1-1.3,1.3
				c-0.6,0.3-1.2,0.5-2,0.5c-0.6,0-1.1-0.1-1.5-0.3c-0.4-0.2-0.8-0.5-1-0.8v4h-1.7v-10.4h1.5l0.2,1.1c0.6-0.8,1.5-1.2,2.6-1.2
				c0.7,0,1.4,0.2,2,0.5C150.4,157.5,150.9,157.9,151.2,158.5z M150,160.5c0-0.7-0.2-1.3-0.6-1.8c-0.4-0.5-1-0.7-1.7-0.7
				s-1.3,0.2-1.7,0.7c-0.4,0.5-0.6,1-0.6,1.8c0,0.7,0.2,1.4,0.6,1.8c0.4,0.5,1,0.7,1.7,0.7s1.3-0.2,1.7-0.7
				C149.8,161.8,150,161.3,150,160.5z"/>
			<path style="fill:#BDC7DA;" d="M160.7,164.3h-0.9c-0.5,0-0.9-0.1-1.1-0.3c-0.2-0.2-0.3-0.5-0.3-0.9c-0.6,0.9-1.5,1.3-2.6,1.3
				c-0.9,0-1.6-0.2-2.2-0.6c-0.5-0.4-0.8-0.9-0.8-1.6c0-0.8,0.3-1.4,0.9-1.8c0.6-0.4,1.4-0.6,2.5-0.6h2v-0.5c0-0.4-0.2-0.7-0.5-1
				c-0.3-0.2-0.7-0.4-1.3-0.4c-0.5,0-0.9,0.1-1.2,0.3c-0.3,0.2-0.5,0.5-0.6,0.8H153c0.1-0.7,0.4-1.3,1.1-1.7
				c0.6-0.4,1.4-0.6,2.5-0.6c1.1,0,1.9,0.2,2.5,0.7c0.6,0.5,0.9,1.1,0.9,2v2.9c0,0.3,0.2,0.5,0.5,0.5h0.3V164.3z M156.1,160.9
				c-0.5,0-0.9,0.1-1.2,0.3s-0.4,0.5-0.4,0.8c0,0.3,0.1,0.6,0.4,0.8c0.3,0.2,0.6,0.3,1.1,0.3c0.7,0,1.2-0.2,1.6-0.5
				c0.4-0.3,0.6-0.8,0.6-1.4v-0.3H156.1z"/>
			<path style="fill:#BDC7DA;" d="M166,158.3h-0.7c-0.7,0-1.2,0.2-1.5,0.6c-0.3,0.4-0.5,1-0.5,1.6v3.7h-1.7v-7.5h1.5l0.2,1.1
				c0.2-0.3,0.5-0.6,0.9-0.8c0.4-0.2,0.9-0.3,1.5-0.3h0.4V158.3z"/>
			<path style="fill:#BDC7DA;" d="M174.4,164.3h-0.9c-0.5,0-0.9-0.1-1.1-0.3c-0.2-0.2-0.3-0.5-0.3-0.9c-0.6,0.9-1.5,1.3-2.6,1.3
				c-0.9,0-1.6-0.2-2.2-0.6c-0.5-0.4-0.8-0.9-0.8-1.6c0-0.8,0.3-1.4,0.9-1.8c0.6-0.4,1.4-0.6,2.5-0.6h2v-0.5c0-0.4-0.2-0.7-0.5-1
				c-0.3-0.2-0.7-0.4-1.3-0.4c-0.5,0-0.9,0.1-1.2,0.3c-0.3,0.2-0.5,0.5-0.6,0.8h-1.7c0.1-0.7,0.4-1.3,1.1-1.7
				c0.6-0.4,1.4-0.6,2.5-0.6c1.1,0,1.9,0.2,2.5,0.7c0.6,0.5,0.9,1.1,0.9,2v2.9c0,0.3,0.2,0.5,0.5,0.5h0.3V164.3z M169.8,160.9
				c-0.5,0-0.9,0.1-1.2,0.3c-0.3,0.2-0.4,0.5-0.4,0.8c0,0.3,0.1,0.6,0.4,0.8c0.3,0.2,0.6,0.3,1.1,0.3c0.7,0,1.2-0.2,1.6-0.5
				c0.4-0.3,0.6-0.8,0.6-1.4v-0.3H169.8z"/>
			<path style="fill:#BDC7DA;" d="M191.5,160v4.2h-1.7v-4.2c0-0.6-0.1-1.1-0.4-1.5c-0.3-0.3-0.7-0.5-1.2-0.5c-0.6,0-1,0.2-1.4,0.6
				s-0.5,0.9-0.5,1.6v4h-1.7v-4.2c0-0.7-0.1-1.2-0.4-1.5c-0.3-0.3-0.7-0.5-1.3-0.5c-0.6,0-1,0.2-1.4,0.6c-0.3,0.4-0.5,0.9-0.5,1.6v4
				h-1.7v-7.5h1.5l0.2,1c0.6-0.7,1.4-1.1,2.3-1.1c0.6,0,1.1,0.1,1.5,0.3c0.4,0.2,0.8,0.6,1,1c0.3-0.4,0.6-0.8,1.1-1
				c0.5-0.2,1-0.4,1.7-0.4c0.9,0,1.6,0.3,2.1,0.8C191.3,158,191.5,158.9,191.5,160z"/>
			<path style="fill:#BDC7DA;" d="M200.7,164.3h-0.9c-0.5,0-0.9-0.1-1.1-0.3c-0.2-0.2-0.3-0.5-0.3-0.9c-0.6,0.9-1.5,1.3-2.6,1.3
				c-0.9,0-1.6-0.2-2.2-0.6c-0.5-0.4-0.8-0.9-0.8-1.6c0-0.8,0.3-1.4,0.9-1.8c0.6-0.4,1.4-0.6,2.5-0.6h2v-0.5c0-0.4-0.2-0.7-0.5-1
				c-0.3-0.2-0.7-0.4-1.3-0.4c-0.5,0-0.9,0.1-1.2,0.3c-0.3,0.2-0.5,0.5-0.6,0.8H193c0.1-0.7,0.4-1.3,1.1-1.7
				c0.6-0.4,1.4-0.6,2.5-0.6c1.1,0,1.9,0.2,2.5,0.7c0.6,0.5,0.9,1.1,0.9,2v2.9c0,0.3,0.2,0.5,0.5,0.5h0.3V164.3z M196.1,160.9
				c-0.5,0-0.9,0.1-1.2,0.3c-0.3,0.2-0.4,0.5-0.4,0.8c0,0.3,0.1,0.6,0.4,0.8c0.3,0.2,0.6,0.3,1.1,0.3c0.7,0,1.2-0.2,1.6-0.5
				c0.4-0.3,0.6-0.8,0.6-1.4v-0.3H196.1z"/>
			<path style="fill:#BDC7DA;" d="M203.6,162.7c0.4,0.2,0.8,0.4,1.4,0.4c0.5,0,0.9-0.1,1.2-0.3c0.3-0.2,0.5-0.4,0.5-0.7
				c0-0.3-0.1-0.4-0.2-0.6c-0.1-0.1-0.3-0.2-0.6-0.3c-0.2-0.1-0.6-0.1-1.1-0.2c-0.7-0.1-1.3-0.2-1.7-0.3c-0.5-0.1-0.8-0.3-1.1-0.6
				c-0.3-0.3-0.4-0.7-0.4-1.2c0-0.5,0.1-0.9,0.4-1.2c0.3-0.4,0.7-0.6,1.1-0.8c0.5-0.2,1-0.3,1.6-0.3c1,0,1.8,0.2,2.5,0.6
				c0.6,0.4,1,1,1,1.8h-1.6c0-0.3-0.2-0.6-0.5-0.8c-0.3-0.2-0.7-0.3-1.2-0.3c-0.5,0-0.9,0.1-1.2,0.3c-0.3,0.2-0.5,0.4-0.5,0.7
				c0,0.2,0.1,0.4,0.2,0.5c0.2,0.1,0.3,0.2,0.6,0.2c0.2,0,0.6,0.1,1.1,0.2c0.7,0.1,1.3,0.2,1.7,0.3c0.5,0.1,0.8,0.4,1.1,0.7
				c0.3,0.3,0.4,0.7,0.4,1.2c0,0.5-0.1,0.9-0.4,1.2c-0.3,0.4-0.7,0.6-1.2,0.8c-0.5,0.2-1.1,0.3-1.7,0.3c-1.1,0-1.9-0.2-2.6-0.7
				c-0.7-0.5-1-1.1-1-1.9h1.6C203,162.2,203.2,162.5,203.6,162.7z"/>
			<path style="fill:#BDC7DA;" d="M213.4,164.3c-0.8,0-1.5-0.2-2.1-0.5c-0.6-0.3-1.1-0.8-1.4-1.3c-0.3-0.6-0.5-1.3-0.5-2
				s0.2-1.4,0.5-2c0.3-0.6,0.8-1,1.4-1.3c0.6-0.3,1.3-0.5,2.1-0.5c1,0,1.8,0.2,2.5,0.7c0.6,0.5,1,1.2,1.2,2h-1.7
				c-0.1-0.4-0.3-0.8-0.7-1c-0.3-0.3-0.8-0.4-1.3-0.4c-0.7,0-1.2,0.2-1.6,0.7c-0.4,0.5-0.6,1-0.6,1.8c0,0.7,0.2,1.3,0.6,1.8
				c0.4,0.5,1,0.7,1.6,0.7c0.5,0,1-0.1,1.3-0.4c0.3-0.3,0.6-0.6,0.7-1h1.7c-0.2,0.9-0.6,1.5-1.2,2
				C215.2,164.1,214.4,164.3,213.4,164.3z"/>
			<path style="fill:#BDC7DA;" d="M218.5,162.5c-0.3-0.6-0.5-1.2-0.5-2c0-0.7,0.2-1.4,0.5-2c0.3-0.6,0.8-1,1.4-1.3
				c0.6-0.3,1.3-0.5,2.1-0.5s1.5,0.2,2.1,0.5c0.6,0.3,1.1,0.8,1.4,1.3c0.3,0.6,0.5,1.2,0.5,2c0,0.8-0.2,1.4-0.5,2
				c-0.3,0.6-0.8,1-1.4,1.3c-0.6,0.3-1.3,0.5-2.1,0.5s-1.5-0.2-2.1-0.5C219.3,163.5,218.8,163.1,218.5,162.5z M224.4,160.5
				c0-0.7-0.2-1.3-0.6-1.8c-0.4-0.5-1-0.7-1.7-0.7s-1.3,0.2-1.7,0.7c-0.4,0.5-0.6,1.1-0.6,1.8c0,0.7,0.2,1.3,0.6,1.8
				c0.4,0.5,1,0.7,1.7,0.7s1.3-0.2,1.7-0.7C224.2,161.8,224.4,161.3,224.4,160.5z"/>
			<path style="fill:#BDC7DA;" d="M226.5,158.2v-1.4h1.4v-2.1h1.7v2.1h1.9v1.4h-1.9v3.9c0,0.3,0.1,0.5,0.2,0.6
				c0.1,0.1,0.3,0.2,0.6,0.2h1.3v1.4h-1.6c-0.8,0-1.3-0.2-1.7-0.5c-0.3-0.3-0.5-0.8-0.5-1.5v-4.1H226.5z"/>
			<path style="fill:#BDC7DA;" d="M240.2,164.3h-0.9c-0.5,0-0.9-0.1-1.1-0.3c-0.2-0.2-0.3-0.5-0.3-0.9c-0.6,0.9-1.5,1.3-2.6,1.3
				c-0.9,0-1.6-0.2-2.2-0.6c-0.5-0.4-0.8-0.9-0.8-1.6c0-0.8,0.3-1.4,0.9-1.8c0.6-0.4,1.4-0.6,2.5-0.6h2v-0.5c0-0.4-0.2-0.7-0.5-1
				c-0.3-0.2-0.7-0.4-1.3-0.4c-0.5,0-0.9,0.1-1.2,0.3c-0.3,0.2-0.5,0.5-0.6,0.8h-1.7c0.1-0.7,0.4-1.3,1.1-1.7
				c0.6-0.4,1.4-0.6,2.5-0.6c1.1,0,1.9,0.2,2.5,0.7c0.6,0.5,0.9,1.1,0.9,2v2.9c0,0.3,0.2,0.5,0.5,0.5h0.3V164.3z M235.6,160.9
				c-0.5,0-0.9,0.1-1.2,0.3s-0.4,0.5-0.4,0.8c0,0.3,0.1,0.6,0.4,0.8c0.3,0.2,0.6,0.3,1.1,0.3c0.7,0,1.2-0.2,1.6-0.5
				c0.4-0.3,0.6-0.8,0.6-1.4v-0.3H235.6z"/>
			<path style="fill:#BDC7DA;" d="M243,162.7c0.4,0.2,0.8,0.4,1.4,0.4c0.5,0,0.9-0.1,1.2-0.3c0.3-0.2,0.5-0.4,0.5-0.7
				c0-0.3-0.1-0.4-0.2-0.6c-0.1-0.1-0.3-0.2-0.6-0.3c-0.2-0.1-0.6-0.1-1.1-0.2c-0.7-0.1-1.3-0.2-1.7-0.3c-0.5-0.1-0.8-0.3-1.1-0.6
				c-0.3-0.3-0.4-0.7-0.4-1.2c0-0.5,0.1-0.9,0.4-1.2c0.3-0.4,0.7-0.6,1.1-0.8c0.5-0.2,1-0.3,1.6-0.3c1,0,1.8,0.2,2.5,0.6
				c0.6,0.4,1,1,1,1.8H246c0-0.3-0.2-0.6-0.5-0.8c-0.3-0.2-0.7-0.3-1.2-0.3c-0.5,0-0.9,0.1-1.2,0.3c-0.3,0.2-0.5,0.4-0.5,0.7
				c0,0.2,0.1,0.4,0.2,0.5c0.2,0.1,0.3,0.2,0.6,0.2c0.2,0,0.6,0.1,1.1,0.2c0.7,0.1,1.3,0.2,1.7,0.3c0.5,0.1,0.8,0.4,1.1,0.7
				c0.3,0.3,0.4,0.7,0.4,1.2c0,0.5-0.1,0.9-0.4,1.2c-0.3,0.4-0.7,0.6-1.2,0.8c-0.5,0.2-1.1,0.3-1.7,0.3c-1.1,0-1.9-0.2-2.6-0.7
				c-0.7-0.5-1-1.1-1-1.9h1.6C242.5,162.2,242.7,162.5,243,162.7z"/>
		</g>
	</g>
	<g>
		<g>
			<g>
				<path style="fill:#009BDD;" d="M179,68c17.5,2.6,34.8,6.6,51.8,11.9c-5.4,14.2-10.7,28.3-16.1,42.5
					c-57.9-17.9-120.8-17.9-178.8,0C30.6,108.1,25.2,94,19.8,79.8c17.1-5.3,34.5-9.3,52.2-11.9l3.4,9l7.4,8.1l82.6,0.6l10.1-8.8
					L179,68z"/>
				<path style="fill:#003A56;" d="M216,125l-1.9-0.6c-57.2-17.7-120.3-17.7-177.5,0l-1.9,0.6L17,78.4l2.2-0.7
					c17.1-5.3,34.7-9.3,52.5-12l1.7-0.3l3.9,10.2l6.5,7.1l80.9,0.6l9.1-7.9l3.9-10.1l1.7,0.3c17.6,2.7,35.1,6.7,52.1,11.9l2.2,0.7
					L216,125z M22.7,81.2l14.6,38.4c28.5-8.6,58.1-13,88.1-13c30,0,59.6,4.4,88.1,13L228,81.2c-15.5-4.7-31.5-8.3-47.5-10.8l-3,7.8
					l-11.1,9.6l-84.4-0.6l-8.3-9.1l-3-7.8C54.4,72.8,38.3,76.5,22.7,81.2z"/>
			</g>
			<g>
				<path style="fill:#009BDD;" d="M196.5,126.8c-46-14.3-96-14.3-142,0c-5.2-13.7-10.4-27.4-15.6-41.1
					c44.1-13.7,91.2-16.6,136.6-8.8c12.3,2.1,24.5,5,36.5,8.8C206.9,99.4,201.7,113.1,196.5,126.8z"/>
				<path style="fill:#003A56;" d="M196.5,129c-0.2,0-0.4,0-0.6-0.1c-45.4-14.1-95.4-14.1-140.7,0c-1.1,0.3-2.3-0.2-2.7-1.3
					L36.9,86.4c-0.2-0.6-0.2-1.2,0.1-1.7c0.3-0.5,0.7-0.9,1.3-1.1c44.2-13.7,91.8-16.7,137.6-8.8c12.4,2.1,24.8,5.1,36.8,8.8
					c0.6,0.2,1,0.6,1.3,1.1c0.3,0.5,0.3,1.2,0.1,1.7l-15.6,41.1C198.2,128.4,197.4,129,196.5,129z M125.5,113.9
					c23.7,0,47.2,3.4,69.7,10.2l14-37.1c-11.1-3.3-22.6-6-34-8c-44.4-7.7-90.5-4.9-133.4,8l14,37.1
					C78.3,117.4,101.8,113.9,125.5,113.9z"/>
			</g>
			<g>
				<path style="fill:#009BDD;" d="M175.6,76.9c12.3,2.1,24.5,5,36.5,8.8c0,0-22.5-13.8-33.1-17.6L175.6,76.9z"/>
				<path style="fill:#003A56;" d="M212.1,87.8c-0.2,0-0.4,0-0.6-0.1c-11.8-3.7-24-6.6-36.2-8.7c-0.6-0.1-1.2-0.5-1.5-1.1
					s-0.4-1.2-0.1-1.8l3.4-8.9c0.4-1.1,1.6-1.7,2.7-1.3c10.7,3.8,32.6,17.3,33.5,17.8c0.9,0.6,1.3,1.7,0.8,2.7
					C213.7,87.3,212.9,87.8,212.1,87.8z M178.5,75.2c6,1.1,12.1,2.4,18,3.9c-5.6-3.1-11.8-6.4-16.4-8.3L178.5,75.2z"/>
			</g>
			<g>
				<path style="fill:#009BDD;" d="M75.5,76.9c-12.3,2.1-24.5,5-36.5,8.8c0,0,22.5-13.8,33.1-17.6L75.5,76.9z"/>
				<path style="fill:#003A56;" d="M38.9,87.8c-0.8,0-1.6-0.5-2-1.3c-0.4-1-0.1-2.2,0.8-2.7c0.9-0.6,22.8-14,33.5-17.8
					c1.1-0.4,2.3,0.2,2.7,1.3l3.4,8.9c0.2,0.6,0.2,1.3-0.1,1.8c-0.3,0.6-0.9,1-1.5,1.1c-12.2,2.1-24.4,5-36.2,8.7
					C39.4,87.8,39.2,87.8,38.9,87.8z M70.8,70.8c-4.6,1.9-10.8,5.2-16.4,8.3c6-1.5,12-2.8,18-3.9L70.8,70.8z"/>
			</g>
			<g>
				<path style="fill:#010001;stroke:#FFFFFF;stroke-width:10;stroke-miterlimit:10;" d="M182.1,80.4"/>
			</g>
		</g>
		<g>
			<path style="fill:#FFFFFF;" d="M68.5,111.5l-8.5,2l-4.9-20.6l8.5-2c7.4-1.8,11.3,0.6,13.1,7.8C78.4,105.9,75.9,109.7,68.5,111.5z
				 M61.9,95.6l2.9,12.4l2.4-0.6c3.3-0.8,4.3-3,3.2-7.3c-1-4.3-2.9-5.8-6.2-5.1L61.9,95.6z"/>
			<path style="fill:#FFFFFF;" d="M101.1,94.9c1.1,7.8-1.7,11.6-9.5,12.7c-7.8,1.1-11.6-1.7-12.7-9.4c-1.1-7.8,1.7-11.6,9.5-12.7
				C96.1,84.3,100,87.2,101.1,94.9z M85.2,97.3c0.7,4.6,2.4,6.4,5.8,5.9c3.4-0.5,4.5-2.7,3.8-7.3c-0.7-4.6-2.4-6.4-5.8-5.9
				C85.7,90.5,84.6,92.6,85.2,97.3z"/>
			<path style="fill:#FFFFFF;" d="M125.7,93.5c0.4,7.8-2.7,11.4-10.6,11.8c-7.8,0.4-11.4-2.7-11.8-10.6c-0.4-7.8,2.7-11.4,10.6-11.8
				C121.8,82.5,125.3,85.6,125.7,93.5z M109.7,94.4c0.3,4.7,1.8,6.6,5.2,6.4c3.4-0.2,4.7-2.3,4.5-6.9c-0.3-4.7-1.8-6.6-5.2-6.4
				C110.8,87.6,109.5,89.7,109.7,94.4z"/>
			<path style="fill:#FFFFFF;" d="M139.3,92l10.6,0.4l-0.1,1.8c-0.3,7.8-3.6,11.1-11,10.8c-7.8-0.3-11.1-3.7-10.8-11.6
				c0.3-7.8,3.7-11.1,11.6-10.8c6.2,0.2,9.2,2.5,10,7.6l-5.7-0.2c-0.4-1.9-1.8-2.8-4.4-2.9c-3.4-0.1-4.9,1.8-5.1,6.5
				c-0.2,4.7,1.2,6.7,4.6,6.8c3.4,0.1,4.9-1.2,5-4.4l-4.8-0.2L139.3,92z"/>
			<path style="fill:#FFFFFF;" d="M169.5,100.7c-0.6,4.8-3.5,6.6-9.8,5.9c-6.3-0.7-8.8-3-8.3-7.7l5.4,0.6c-0.2,1.9,0.8,2.8,3.3,3.1
				c2.3,0.3,3.4-0.2,3.5-1.7c0.5-4.2-11.8-3.2-11-10.7c0.6-4.8,3.4-6.6,9.5-5.9c6.1,0.7,8.5,3,8,7.6l-5.4-0.6c0.2-1.9-0.7-2.8-3-3.1
				c-2.1-0.2-3.1,0.3-3.2,1.8C158.2,93.3,170.4,92.6,169.5,100.7z"/>
			<path style="fill:#FFFFFF;" d="M179.9,95.4l7.7-6.3l7.1,1.4l-10.3,8.5l6.8,12.4l-7.1-1.4l-5.2-9.5l-1.6,8.2l-5.9-1.2l4.1-20.8
				l5.9,1.2L179.9,95.4z"/>
		</g>
	</g>
</g>
</svg>
