<?xml version="1.0" encoding="utf-8"?>
<!-- Generator: Adobe Illustrator 24.0.0, SVG Export Plug-In . SVG Version: 6.00 Build 0)  -->
<svg version="1.1" id="Capa_1" xmlns="http://www.w3.org/2000/svg" xmlns:xlink="http://www.w3.org/1999/xlink" x="0px" y="0px"
	 viewBox="0 0 174 50" style="enable-background:new 0 0 174 50;" xml:space="preserve">
<g>
	<g>
		<g>
			<rect x="0.9" y="0.8" style="fill:#FCCF00;" width="41.7" height="46.6"/>
		</g>
		<g>
			<polygon style="fill:#FFFFFF;" points="11.1,11.1 19.8,11.1 19.8,33.1 26.9,33.1 26.9,29 23.9,29 23.9,11.1 32.5,11.1 32.5,19.9 
				36.6,19.9 36.6,7 7.1,7 7.1,14.4 11.1,14.4 			"/>
			<polygon style="fill:#FFFFFF;" points="26.9,24.1 26.9,28.2 32.6,28.2 32.6,37.2 16.8,37.3 16.8,18.6 7,18.6 7,22.7 12.7,22.7 
				12.7,41.3 36.6,41.3 36.6,24.1 			"/>
		</g>
	</g>
	<g>
		<path style="fill:#1F140F;" d="M68,19.3v3.6h-5.6v15.7h-4.1V22.9h-5.6v-3.6H68z"/>
		<path style="fill:#1F140F;" d="M82.7,37.5c-1.5,0.8-3.1,1.3-5,1.3s-3.5-0.4-5-1.3c-1.4-0.8-2.6-2-3.4-3.5c-0.8-1.5-1.2-3.2-1.2-5
			c0-1.9,0.4-3.5,1.2-5s1.9-2.7,3.4-3.5c1.5-0.8,3.1-1.3,5-1.3s3.5,0.4,5,1.3c1.4,0.8,2.6,2,3.4,3.5c0.8,1.5,1.2,3.2,1.2,5
			c0,1.9-0.4,3.5-1.2,5C85.3,35.5,84.2,36.6,82.7,37.5z M75,34.4c0.8,0.5,1.7,0.8,2.8,0.8c1,0,2-0.3,2.8-0.8
			c0.8-0.5,1.4-1.3,1.9-2.2c0.4-1,0.7-2,0.7-3.2c0-1.2-0.2-2.3-0.7-3.2c-0.4-1-1.1-1.7-1.9-2.2c-0.8-0.5-1.7-0.8-2.8-0.8
			c-1.1,0-2,0.3-2.8,0.8c-0.8,0.5-1.4,1.3-1.9,2.2c-0.4,1-0.7,2-0.7,3.2c0,1.2,0.2,2.3,0.7,3.2C73.5,33.2,74.1,33.9,75,34.4z"/>
		<path style="fill:#1F140F;" d="M101.4,20.1c1.1,0.5,1.9,1.3,2.5,2.2c0.6,1,0.9,2.1,0.9,3.4c0,1.2-0.3,2.3-0.9,3.3
			c-0.6,0.9-1.4,1.7-2.4,2.2l3.8,7.4h-4.6l-3.2-6.5H94v6.5h-4.1V19.3h7.8C99.1,19.3,100.3,19.6,101.4,20.1z M97.3,28.7
			c1,0,1.7-0.3,2.3-0.8c0.6-0.5,0.9-1.2,0.9-2.1c0-0.9-0.3-1.6-0.9-2.2c-0.6-0.5-1.4-0.8-2.3-0.8H94v5.9H97.3z"/>
		<path style="fill:#1F140F;" d="M111.6,19.3v19.3h-4.1V19.3H111.6z"/>
		<path style="fill:#1F140F;" d="M127.4,20.6c1.2,0.9,1.8,2.1,1.8,3.7c0,1.2-0.3,2.2-1,2.9s-1.6,1.2-2.8,1.4
			c1.4,0.2,2.5,0.6,3.3,1.4c0.8,0.7,1.2,1.8,1.2,3.1c0,1.7-0.6,3-1.9,4c-1.3,1-3.1,1.4-5.5,1.4h-7.7V19.3h7.3
			C124.5,19.3,126.2,19.8,127.4,20.6z M122.3,27.2c0.9,0,1.6-0.2,2.1-0.6c0.5-0.4,0.7-1,0.7-1.7c0-0.7-0.2-1.3-0.7-1.7
			c-0.5-0.4-1.2-0.6-2.1-0.6H119v4.7H122.3z M122.6,35.3c1,0,1.8-0.2,2.3-0.6c0.5-0.4,0.8-1,0.8-1.8c0-0.8-0.3-1.4-0.8-1.8
			c-0.6-0.4-1.3-0.6-2.3-0.6H119v4.9H122.6z"/>
		<path style="fill:#1F140F;" d="M137.5,19.3h5l7,19.3h-4.4l-1.5-4.2h-7.3l-1.5,4.2h-4.3L137.5,19.3z M142.4,31l-2.6-7.3l-2.5,7.3
			H142.4z"/>
		<path style="fill:#1F140F;" d="M162.8,20.1c1.1,0.5,1.9,1.3,2.5,2.2c0.6,1,0.9,2.1,0.9,3.4c0,1.2-0.3,2.3-0.9,3.3
			c-0.6,0.9-1.4,1.7-2.4,2.2l3.8,7.4h-4.6l-3.2-6.5h-3.5v6.5h-4.1V19.3h7.8C160.5,19.3,161.7,19.6,162.8,20.1z M158.8,28.7
			c1,0,1.7-0.3,2.3-0.8c0.6-0.5,0.9-1.2,0.9-2.1c0-0.9-0.3-1.6-0.9-2.2c-0.6-0.5-1.4-0.8-2.3-0.8h-3.4v5.9H158.8z"/>
	</g>
	<g>
		<path style="fill:#B3CEE0;" d="M93.3,41.5c0.5-0.3,1-0.4,1.6-0.4c0.7,0,1.3,0.2,1.8,0.6c0.5,0.4,0.8,0.9,0.9,1.6h-1
			c-0.1-0.4-0.3-0.7-0.6-0.9c-0.3-0.2-0.7-0.3-1.1-0.3c-0.4,0-0.7,0.1-1,0.3c-0.3,0.2-0.5,0.5-0.7,0.8C93,43.4,93,43.8,93,44.3
			c0,0.4,0.1,0.8,0.2,1.2s0.4,0.6,0.7,0.8c0.3,0.2,0.6,0.3,1,0.3c0.5,0,0.9-0.1,1.3-0.4c0.3-0.3,0.5-0.7,0.5-1.1v-0.2H95V44h2.7v3.4
			h-0.8l-0.1-0.9c-0.2,0.3-0.4,0.5-0.8,0.7c-0.3,0.2-0.7,0.3-1.2,0.3c-0.6,0-1.1-0.1-1.5-0.4c-0.4-0.3-0.8-0.6-1-1.1
			c-0.3-0.5-0.4-1-0.4-1.7c0-0.6,0.1-1.2,0.4-1.7C92.5,42.1,92.9,41.7,93.3,41.5z"/>
		<path style="fill:#B3CEE0;" d="M101.3,43.7h-0.4c-0.4,0-0.7,0.1-0.9,0.4c-0.2,0.3-0.3,0.6-0.3,1v2.3h-1v-4.6h0.9l0.1,0.7
			c0.1-0.2,0.3-0.4,0.5-0.5s0.5-0.2,0.8-0.2h0.2V43.7z"/>
		<path style="fill:#B3CEE0;" d="M106,47.4h-0.8l-0.1-0.6c-0.3,0.4-0.8,0.6-1.4,0.6c-0.5,0-1-0.2-1.3-0.5c-0.3-0.3-0.5-0.9-0.5-1.6
			v-2.5h1v2.4c0,0.4,0.1,0.8,0.3,1c0.2,0.2,0.4,0.3,0.8,0.3c0.4,0,0.7-0.1,0.9-0.4c0.2-0.3,0.3-0.6,0.3-1.1v-2.3h1V47.4z"/>
		<path style="fill:#B3CEE0;" d="M111.3,43.9c0.2,0.4,0.3,0.8,0.3,1.2c0,0.5-0.1,0.9-0.3,1.2c-0.2,0.4-0.4,0.6-0.8,0.8
			c-0.3,0.2-0.7,0.3-1.1,0.3c-0.3,0-0.6-0.1-0.9-0.2c-0.3-0.1-0.4-0.3-0.6-0.5v2.4h-1v-6.4h0.8l0.1,0.7c0.4-0.5,0.9-0.7,1.5-0.7
			c0.4,0,0.8,0.1,1.1,0.3C110.8,43.2,111.1,43.5,111.3,43.9z M110.5,45.1c0-0.5-0.1-0.8-0.4-1.1c-0.2-0.3-0.6-0.4-1-0.4
			c-0.4,0-0.7,0.1-1,0.4c-0.2,0.3-0.4,0.6-0.4,1.1c0,0.5,0.1,0.8,0.4,1.1s0.6,0.4,1,0.4c0.4,0,0.7-0.1,1-0.4
			C110.4,45.9,110.5,45.6,110.5,45.1z"/>
		<path style="fill:#B3CEE0;" d="M112.4,46.3c-0.2-0.4-0.3-0.8-0.3-1.2c0-0.5,0.1-0.9,0.3-1.2c0.2-0.4,0.5-0.6,0.8-0.8
			c0.4-0.2,0.8-0.3,1.2-0.3c0.5,0,0.9,0.1,1.2,0.3c0.4,0.2,0.6,0.5,0.8,0.8c0.2,0.4,0.3,0.8,0.3,1.2c0,0.5-0.1,0.9-0.3,1.2
			c-0.2,0.4-0.5,0.6-0.8,0.8c-0.4,0.2-0.8,0.3-1.2,0.3c-0.5,0-0.9-0.1-1.2-0.3C112.9,47,112.6,46.7,112.4,46.3z M115.8,45.1
			c0-0.4-0.1-0.8-0.4-1.1c-0.2-0.3-0.6-0.4-1-0.4c-0.4,0-0.7,0.1-1,0.4c-0.2,0.3-0.4,0.6-0.4,1.1s0.1,0.8,0.4,1.1
			c0.2,0.3,0.6,0.4,1,0.4c0.4,0,0.7-0.1,1-0.4C115.7,45.9,115.8,45.6,115.8,45.1z"/>
		<path style="fill:#B3CEE0;" d="M120.8,43.1c0.3-0.2,0.7-0.3,1.2-0.3c0.4,0,0.8,0.1,1.2,0.3c0.3,0.2,0.6,0.4,0.8,0.8
			c0.2,0.3,0.3,0.7,0.3,1.2c0,0.1,0,0.2,0,0.4h-3.5v0.1c0,0.4,0.1,0.7,0.4,0.9c0.2,0.2,0.5,0.3,0.9,0.3c0.3,0,0.5-0.1,0.8-0.2
			c0.2-0.1,0.3-0.3,0.4-0.6h1c-0.1,0.5-0.3,0.8-0.7,1.1c-0.4,0.3-0.8,0.4-1.4,0.4c-0.5,0-0.9-0.1-1.2-0.3c-0.4-0.2-0.6-0.5-0.8-0.8
			c-0.2-0.4-0.3-0.8-0.3-1.2c0-0.5,0.1-0.9,0.3-1.2C120.2,43.5,120.4,43.2,120.8,43.1z M122.8,43.8c-0.2-0.2-0.5-0.3-0.8-0.3
			c-0.3,0-0.6,0.1-0.8,0.3c-0.2,0.2-0.4,0.5-0.4,0.8h2.5C123.2,44.3,123,44,122.8,43.8z"/>
		<path style="fill:#B3CEE0;" d="M131.9,44.8v2.6h-1v-2.6c0-0.4-0.1-0.7-0.2-0.9c-0.2-0.2-0.4-0.3-0.7-0.3c-0.3,0-0.6,0.1-0.8,0.4
			c-0.2,0.2-0.3,0.6-0.3,1v2.5h-1v-2.6c0-0.4-0.1-0.7-0.2-0.9c-0.2-0.2-0.4-0.3-0.7-0.3c-0.3,0-0.6,0.1-0.8,0.4
			c-0.2,0.2-0.3,0.6-0.3,1v2.4h-1v-4.6h0.8l0.1,0.6c0.3-0.4,0.8-0.6,1.3-0.7c0.3,0,0.6,0.1,0.8,0.2c0.2,0.1,0.4,0.3,0.6,0.6
			c0.2-0.3,0.4-0.5,0.6-0.6c0.3-0.1,0.6-0.2,0.9-0.2c0.5,0,0.9,0.2,1.2,0.5C131.8,43.6,131.9,44.1,131.9,44.8z"/>
		<path style="fill:#B3CEE0;" d="M137.2,43.9c0.2,0.4,0.3,0.8,0.3,1.2c0,0.5-0.1,0.9-0.3,1.2c-0.2,0.4-0.4,0.6-0.8,0.8
			c-0.3,0.2-0.7,0.3-1.1,0.3c-0.3,0-0.6-0.1-0.9-0.2c-0.3-0.1-0.4-0.3-0.6-0.5v2.4h-1v-6.4h0.8l0.1,0.7c0.4-0.5,0.9-0.7,1.5-0.7
			c0.4,0,0.8,0.1,1.1,0.3C136.7,43.2,137,43.5,137.2,43.9z M136.4,45.1c0-0.5-0.1-0.8-0.4-1.1c-0.2-0.3-0.6-0.4-1-0.4
			c-0.4,0-0.7,0.1-1,0.4c-0.2,0.3-0.4,0.6-0.4,1.1c0,0.5,0.1,0.8,0.4,1.1s0.6,0.4,1,0.4c0.4,0,0.7-0.1,1-0.4
			C136.3,45.9,136.4,45.6,136.4,45.1z"/>
		<path style="fill:#B3CEE0;" d="M140.7,43.7h-0.4c-0.4,0-0.7,0.1-0.9,0.4c-0.2,0.3-0.3,0.6-0.3,1v2.3h-1v-4.6h0.9l0.1,0.7
			c0.1-0.2,0.3-0.4,0.5-0.5c0.2-0.1,0.5-0.2,0.8-0.2h0.2V43.7z"/>
		<path style="fill:#B3CEE0;" d="M142,43.1c0.3-0.2,0.7-0.3,1.2-0.3c0.4,0,0.8,0.1,1.2,0.3c0.3,0.2,0.6,0.4,0.8,0.8
			c0.2,0.3,0.3,0.7,0.3,1.2c0,0.1,0,0.2,0,0.4H142v0.1c0,0.4,0.1,0.7,0.4,0.9c0.2,0.2,0.5,0.3,0.9,0.3c0.3,0,0.5-0.1,0.8-0.2
			c0.2-0.1,0.3-0.3,0.4-0.6h1c-0.1,0.5-0.3,0.8-0.7,1.1c-0.4,0.3-0.8,0.4-1.4,0.4c-0.5,0-0.9-0.1-1.2-0.3c-0.4-0.2-0.6-0.5-0.8-0.8
			c-0.2-0.4-0.3-0.8-0.3-1.2c0-0.5,0.1-0.9,0.3-1.2C141.4,43.5,141.7,43.2,142,43.1z M144.1,43.8c-0.2-0.2-0.5-0.3-0.8-0.3
			c-0.3,0-0.6,0.1-0.8,0.3c-0.2,0.2-0.4,0.5-0.4,0.8h2.5C144.4,44.3,144.3,44,144.1,43.8z"/>
		<path style="fill:#B3CEE0;" d="M147.3,46.5c0.2,0.2,0.5,0.2,0.8,0.2c0.3,0,0.5-0.1,0.7-0.2c0.2-0.1,0.3-0.3,0.3-0.4
			c0-0.2,0-0.3-0.1-0.3c-0.1-0.1-0.2-0.1-0.3-0.2c-0.1,0-0.4-0.1-0.6-0.1c-0.4,0-0.7-0.1-1-0.2c-0.3-0.1-0.5-0.2-0.6-0.4
			c-0.2-0.2-0.2-0.4-0.2-0.7c0-0.3,0.1-0.5,0.2-0.7c0.2-0.2,0.4-0.4,0.7-0.5c0.3-0.1,0.6-0.2,0.9-0.2c0.6,0,1,0.1,1.4,0.4
			s0.6,0.6,0.6,1.1H149c0-0.2-0.1-0.4-0.3-0.5c-0.2-0.1-0.4-0.2-0.7-0.2c-0.3,0-0.5,0.1-0.7,0.2c-0.2,0.1-0.3,0.3-0.3,0.4
			c0,0.1,0,0.2,0.1,0.3c0.1,0.1,0.2,0.1,0.3,0.1c0.1,0,0.3,0.1,0.6,0.1c0.4,0,0.7,0.1,1,0.2c0.3,0.1,0.5,0.2,0.6,0.4
			c0.2,0.2,0.2,0.4,0.2,0.8c0,0.3-0.1,0.5-0.3,0.8c-0.2,0.2-0.4,0.4-0.7,0.5c-0.3,0.1-0.6,0.2-1,0.2c-0.6,0-1.1-0.1-1.5-0.4
			c-0.4-0.3-0.6-0.7-0.6-1.1h0.9C147,46.1,147.1,46.3,147.3,46.5z"/>
		<path style="fill:#B3CEE0;" d="M155.2,47.4h-0.5c-0.3,0-0.5-0.1-0.6-0.2c-0.1-0.1-0.2-0.3-0.2-0.5c-0.3,0.5-0.8,0.8-1.5,0.8
			c-0.5,0-0.9-0.1-1.2-0.4s-0.5-0.6-0.5-1c0-0.5,0.2-0.8,0.5-1.1c0.3-0.3,0.8-0.4,1.5-0.4h1.2v-0.3c0-0.3-0.1-0.5-0.3-0.6
			c-0.2-0.1-0.4-0.2-0.7-0.2c-0.3,0-0.5,0.1-0.7,0.2c-0.2,0.1-0.3,0.3-0.3,0.5h-0.9c0-0.5,0.3-0.8,0.6-1.1c0.4-0.3,0.8-0.4,1.4-0.4
			c0.6,0,1.1,0.1,1.4,0.4c0.3,0.3,0.5,0.7,0.5,1.2v1.8c0,0.2,0.1,0.3,0.3,0.3h0.2V47.4z M152.6,45.4c-0.3,0-0.5,0.1-0.7,0.2
			c-0.2,0.1-0.2,0.3-0.2,0.5c0,0.2,0.1,0.4,0.2,0.5c0.2,0.1,0.4,0.2,0.6,0.2c0.4,0,0.7-0.1,0.9-0.3c0.2-0.2,0.3-0.5,0.3-0.9v-0.2
			H152.6z"/>
		<path style="fill:#B3CEE0;" d="M158.3,43.7h-0.4c-0.4,0-0.7,0.1-0.9,0.4c-0.2,0.3-0.3,0.6-0.3,1v2.3h-1v-4.6h0.9l0.1,0.7
			c0.1-0.2,0.3-0.4,0.5-0.5c0.2-0.1,0.5-0.2,0.8-0.2h0.2V43.7z"/>
		<path style="fill:#B3CEE0;" d="M160,41.6c0,0.2-0.1,0.3-0.2,0.4c-0.1,0.1-0.3,0.2-0.4,0.2c-0.2,0-0.3-0.1-0.4-0.2
			c-0.1-0.1-0.2-0.2-0.2-0.4c0-0.2,0.1-0.3,0.2-0.4c0.1-0.1,0.3-0.2,0.4-0.2c0.2,0,0.3,0.1,0.4,0.2C159.9,41.3,160,41.4,160,41.6z
			 M159.8,42.8v4.6h-1v-4.6H159.8z"/>
		<path style="fill:#B3CEE0;" d="M165.2,47.4h-0.5c-0.3,0-0.5-0.1-0.6-0.2c-0.1-0.1-0.2-0.3-0.2-0.5c-0.3,0.5-0.8,0.8-1.5,0.8
			c-0.5,0-0.9-0.1-1.2-0.4s-0.5-0.6-0.5-1c0-0.5,0.2-0.8,0.5-1.1c0.3-0.3,0.8-0.4,1.5-0.4h1.2v-0.3c0-0.3-0.1-0.5-0.3-0.6
			c-0.2-0.1-0.4-0.2-0.7-0.2c-0.3,0-0.5,0.1-0.7,0.2c-0.2,0.1-0.3,0.3-0.3,0.5h-0.9c0-0.5,0.3-0.8,0.6-1.1c0.4-0.3,0.8-0.4,1.4-0.4
			c0.6,0,1.1,0.1,1.4,0.4c0.3,0.3,0.5,0.7,0.5,1.2v1.8c0,0.2,0.1,0.3,0.3,0.3h0.2V47.4z M162.5,45.4c-0.3,0-0.5,0.1-0.7,0.2
			c-0.2,0.1-0.2,0.3-0.2,0.5c0,0.2,0.1,0.4,0.2,0.5c0.2,0.1,0.4,0.2,0.6,0.2c0.4,0,0.7-0.1,0.9-0.3c0.2-0.2,0.3-0.5,0.3-0.9v-0.2
			H162.5z"/>
		<path style="fill:#B3CEE0;" d="M166.7,41.1v6.3h-1v-6.3H166.7z"/>
	</g>
	<g>
		<path style="fill:#1F140F;" d="M170.1,17.8c-1.6,0-2.9,1.3-2.9,2.9s1.3,2.9,2.9,2.9c1.6,0,2.9-1.3,2.9-2.9S171.8,17.8,170.1,17.8z
			 M170.1,23.1c-1.3,0-2.4-1.1-2.4-2.4s1.1-2.4,2.4-2.4s2.4,1.1,2.4,2.4S171.4,23.1,170.1,23.1z"/>
		<path style="fill:#1F140F;" d="M171.2,20.8c0.1-0.2,0.2-0.3,0.2-0.5c0-0.2,0-0.4-0.1-0.5c-0.1-0.1-0.2-0.3-0.4-0.3
			c-0.2-0.1-0.4-0.1-0.6-0.1h-1.3v3.1h0.5v-1.1h0.7l0.6,1.1h0.6l-0.7-1.2C170.9,21,171,20.9,171.2,20.8z M170.2,20.8h-0.7v-1.1h0.7
			c0.2,0,0.3,0,0.5,0.1c0.1,0.1,0.2,0.2,0.2,0.4c0,0.2-0.1,0.3-0.2,0.4C170.5,20.7,170.3,20.8,170.2,20.8z"/>
	</g>
</g>
</svg>
