<?xml version="1.0" encoding="utf-8"?>
<!-- Generator: Adobe Illustrator 24.0.0, SVG Export Plug-In . SVG Version: 6.00 Build 0)  -->
<svg version="1.1" id="Capa_1" xmlns="http://www.w3.org/2000/svg" xmlns:xlink="http://www.w3.org/1999/xlink" x="0px" y="0px"
	 viewBox="0 0 30 30" style="enable-background:new 0 0 30 30;" xml:space="preserve">
<path d="M20.9,10.2c0,0.6-0.5,1.1-1.1,1.1s-1.1-0.5-1.1-1.1s0.5-1.1,1.1-1.1S20.9,9.6,20.9,10.2z M19.5,14.9c0,2.4-2,4.4-4.4,4.4
	s-4.4-2-4.4-4.4s2-4.4,4.4-4.4C17.6,10.5,19.5,12.4,19.5,14.9z M18,14.9c0-1.6-1.3-2.8-2.8-2.8c-1.6,0-2.8,1.3-2.8,2.8
	c0,1.6,1.3,2.8,2.8,2.8C16.7,17.7,18,16.4,18,14.9z M24.1,11.3c0-3-2.4-5.4-5.4-5.4h-7.4c-3,0-5.4,2.4-5.4,5.4v7.4
	c0,3,2.4,5.4,5.4,5.4h7.4c3,0,5.4-2.4,5.4-5.4V11.3z M22.3,18.6c0,2-1.7,3.7-3.7,3.7h-7.2c-2,0-3.7-1.7-3.7-3.7v-7.2
	c0-2,1.7-3.7,3.7-3.7h7.2c2,0,3.7,1.7,3.7,3.7V18.6z"/>
</svg>
