<?xml version="1.0" encoding="utf-8"?>
<!-- Generator: Adobe Illustrator 24.0.0, SVG Export Plug-In . SVG Version: 6.00 Build 0)  -->
<svg version="1.1" id="Capa_1" xmlns="http://www.w3.org/2000/svg" xmlns:xlink="http://www.w3.org/1999/xlink" x="0px" y="0px"
	 viewBox="0 0 30 30" style="enable-background:new 0 0 30 30;" xml:space="preserve">
<path style="fill-rule:evenodd;clip-rule:evenodd;" d="M12.7,15.1v8.6c0,0.1,0.1,0.2,0.2,0.2h3.2c0.1,0,0.2-0.1,0.2-0.2V15h2.3
	c0.1,0,0.2-0.1,0.2-0.2l0.2-2.6c0-0.1-0.1-0.2-0.2-0.2h-2.5v-2c0-0.4,0.4-0.8,0.8-0.8h1.8c0.1,0,0.2-0.1,0.2-0.2V6.3
	c0-0.1-0.1-0.2-0.2-0.2h-3c-1.8,0-3.2,1.4-3.2,3.2v2.5h-1.6c-0.1,0-0.2,0.1-0.2,0.2v2.6c0,0.1,0.1,0.2,0.2,0.2h1.6V15.1z"/>
</svg>
