<?xml version="1.0" encoding="utf-8"?>
<!-- Generator: Adobe Illustrator 24.0.0, SVG Export Plug-In . SVG Version: 6.00 Build 0)  -->
<svg version="1.1" id="Capa_1" xmlns="http://www.w3.org/2000/svg" xmlns:xlink="http://www.w3.org/1999/xlink" x="0px" y="0px"
	 viewBox="0 0 30 30" style="enable-background:new 0 0 30 30;" xml:space="preserve">
<g>
	<path d="M18.4,16.1c-0.4-0.2-0.8-0.5-1.3-0.3c-0.3,0.1-0.5,0.7-0.8,0.9c-0.1,0.1-0.2,0.2-0.4,0.1c-1.2-0.5-2.2-1.3-2.9-2.5
		c-0.1-0.2-0.1-0.3,0-0.5c0.2-0.2,0.5-0.5,0.5-0.9c0.1-0.3-0.1-0.7-0.2-1c-0.2-0.4-0.4-0.9-0.7-1.1c-0.3-0.2-0.8-0.1-1.1,0.2
		c-0.5,0.4-0.8,1.1-0.8,1.8c0,0.2,0,0.4,0.1,0.6c0.1,0.4,0.3,0.9,0.5,1.2s0.4,0.6,0.6,0.9c0.7,0.9,1.5,1.7,2.5,2.3
		c0.5,0.3,1,0.6,1.5,0.7c0.6,0.2,1.1,0.4,1.8,0.3s1.3-0.5,1.6-1.2c0.1-0.2,0.1-0.4,0.1-0.6C19.3,16.6,18.7,16.3,18.4,16.1z"/>
	<path d="M15.1,6c-4.9,0-8.9,4-8.9,8.9c0,1.5,0.4,3,1.1,4.3L6,24l4.9-1.3c1.3,0.7,2.8,1.1,4.2,1.1c4.9,0,8.9-4,8.9-8.9S20,6,15.1,6z
		 M15.1,22.1c-1.3,0-2.6-0.4-3.7-1l-0.3-0.2l-2.7,0.7l0.7-2.7l-0.2-0.3c-0.7-1.1-1.1-2.4-1.1-3.8c0-4,3.2-7.2,7.2-7.2
		s7.2,3.2,7.2,7.2S19.1,22.1,15.1,22.1z"/>
</g>
</svg>
