<?xml version="1.0" encoding="utf-8"?>
<!-- Generator: Adobe Illustrator 24.0.0, SVG Export Plug-In . SVG Version: 6.00 Build 0)  -->
<svg version="1.1" id="Capa_1" xmlns="http://www.w3.org/2000/svg" xmlns:xlink="http://www.w3.org/1999/xlink" x="0px" y="0px"
	 viewBox="0 0 30 30" style="enable-background:new 0 0 30 30;" xml:space="preserve">
<g>
	<path d="M15,5.6c-5.2,0-9.4,3.9-9.4,8.8c0,2.8,1.4,5.2,3.5,6.8v3.3l3.1-1.7c0.9,0.2,1.8,0.4,2.7,0.4c5.2,0,9.4-3.9,9.4-8.8
		S20.2,5.6,15,5.6z M21,11.9c-1.7,1.8-3.4,3.6-5.1,5.4c-0.8-0.9-1.6-1.7-2.4-2.6c-0.8,0.4-3.9,2.1-4.6,2.5l0,0l0,0
		c1.7-1.8,3.4-3.6,5.1-5.4c0.1,0.1,2.3,2.4,2.4,2.6C18,13.6,19.5,12.7,21,11.9C21.1,11.9,21.1,11.9,21,11.9
		C21.1,11.9,21,11.9,21,11.9z"/>
</g>
</svg>
