<?xml version="1.0" encoding="utf-8"?>
<!-- Generator: Adobe Illustrator 24.0.0, SVG Export Plug-In . SVG Version: 6.00 Build 0)  -->
<svg version="1.1" id="Capa_1" xmlns="http://www.w3.org/2000/svg" xmlns:xlink="http://www.w3.org/1999/xlink" x="0px" y="0px"
	 viewBox="0 0 200 200" style="enable-background:new 0 0 200 200;" xml:space="preserve">
<g>
	<circle style="fill:#E65C00;" cx="100" cy="100" r="99.5"/>
	<g>
		<path style="fill:#FFFFFF;" d="M45.3,155h2.2l3,7.8h-1.9l-0.6-1.7h-3.2l-0.6,1.7h-1.9L45.3,155z M47.5,159.7l-1.1-3l-1.1,3H47.5z"
			/>
		<path style="fill:#FFFFFF;" d="M52.9,155v7.8h-1.7V155H52.9z"/>
		<path style="fill:#FFFFFF;" d="M55.9,155.5c0,0.3-0.1,0.5-0.3,0.6c-0.2,0.2-0.4,0.3-0.7,0.3c-0.3,0-0.5-0.1-0.7-0.3
			c-0.2-0.2-0.3-0.4-0.3-0.6c0-0.3,0.1-0.5,0.3-0.6c0.2-0.2,0.4-0.3,0.7-0.3c0.3,0,0.5,0.1,0.7,0.3S55.9,155.3,55.9,155.5z
			 M55.7,157v5.8H54V157H55.7z"/>
		<path style="fill:#FFFFFF;" d="M66.6,159.6v3.2h-1.7v-3.2c0-0.9-0.4-1.3-1.1-1.3c-0.4,0-0.7,0.1-0.9,0.4c-0.2,0.2-0.3,0.6-0.3,1
			v3.2h-1.7v-3.2c0-0.9-0.4-1.3-1.1-1.3c-0.4,0-0.7,0.1-0.9,0.4c-0.2,0.2-0.3,0.6-0.3,1v3.1h-1.7V157h1.5l0.2,0.7
			c0.2-0.2,0.5-0.4,0.7-0.6c0.3-0.1,0.6-0.2,1.1-0.2c0.9,0,1.5,0.3,1.8,1c0.2-0.3,0.5-0.6,0.9-0.7s0.8-0.3,1.2-0.3
			c0.7,0,1.2,0.2,1.6,0.6C66.4,158,66.6,158.7,66.6,159.6z"/>
		<path style="fill:#FFFFFF;" d="M68.9,157.3c0.5-0.2,1-0.4,1.6-0.4c0.6,0,1.2,0.1,1.7,0.3c0.5,0.2,0.8,0.5,1.1,1
			c0.3,0.4,0.4,0.9,0.4,1.5c0,0.2,0,0.4,0,0.5h-4.5v0c0,0.4,0.2,0.7,0.4,1c0.2,0.2,0.6,0.4,1,0.4c0.3,0,0.6-0.1,0.9-0.2
			c0.2-0.1,0.4-0.3,0.5-0.6h1.7c-0.1,0.4-0.2,0.7-0.5,1c-0.2,0.3-0.6,0.5-1,0.7c-0.4,0.2-0.9,0.3-1.4,0.3c-0.7,0-1.3-0.1-1.8-0.4
			s-0.9-0.6-1.2-1c-0.3-0.4-0.4-1-0.4-1.6c0-0.6,0.1-1.1,0.4-1.6C68,157.9,68.4,157.6,68.9,157.3z M71.5,158.4
			c-0.3-0.2-0.6-0.3-1-0.3c-0.4,0-0.7,0.1-0.9,0.3s-0.4,0.5-0.5,0.8H72C71.9,158.9,71.8,158.6,71.5,158.4z"/>
		<path style="fill:#FFFFFF;" d="M80.6,159.7v3.1h-1.7v-3c0-1-0.4-1.5-1.2-1.5c-0.4,0-0.8,0.1-1,0.4c-0.2,0.3-0.4,0.7-0.4,1.2v2.9
			h-1.7V157h1.5l0.2,0.7c0.2-0.2,0.5-0.4,0.8-0.6c0.3-0.1,0.7-0.2,1.1-0.2c0.7,0,1.3,0.2,1.8,0.6S80.6,158.7,80.6,159.7z"/>
		<path style="fill:#FFFFFF;" d="M81.1,158.4V157h1v-1.6h1.7v1.6h1.4v1.3h-1.4v2.5c0,0.2,0,0.3,0.1,0.4c0.1,0.1,0.2,0.1,0.5,0.1h0.9
			v1.3h-1.4c-1.2,0-1.8-0.5-1.8-1.6v-2.8H81.1z"/>
		<path style="fill:#FFFFFF;" d="M92,162.8h-0.9c-0.8,0-1.2-0.3-1.1-0.9c-0.2,0.3-0.5,0.6-0.8,0.8s-0.7,0.3-1.2,0.3
			c-0.7,0-1.2-0.1-1.7-0.4c-0.4-0.3-0.6-0.7-0.6-1.2c0-0.6,0.2-1.1,0.7-1.4c0.5-0.3,1.2-0.5,2.1-0.5h1.2V159c0-0.3-0.1-0.5-0.3-0.6
			c-0.2-0.2-0.5-0.2-0.8-0.2c-0.3,0-0.6,0.1-0.8,0.2c-0.2,0.1-0.3,0.3-0.4,0.5h-1.6c0.1-0.6,0.3-1,0.8-1.4c0.5-0.3,1.2-0.5,2-0.5
			c0.9,0,1.5,0.2,2,0.5c0.5,0.4,0.7,0.9,0.7,1.6v2c0,0.1,0,0.2,0.1,0.3c0.1,0.1,0.2,0.1,0.3,0.1H92V162.8z M88.5,160.3
			c-0.4,0-0.6,0.1-0.8,0.2c-0.2,0.1-0.3,0.3-0.3,0.6c0,0.2,0.1,0.4,0.2,0.5c0.2,0.1,0.4,0.2,0.7,0.2c0.4,0,0.8-0.1,1-0.4
			c0.3-0.2,0.4-0.6,0.4-0.9v-0.1H88.5z"/>
		<path style="fill:#FFFFFF;" d="M98.7,159.7v3.1H97v-3c0-1-0.4-1.5-1.2-1.5c-0.4,0-0.8,0.1-1,0.4c-0.2,0.3-0.4,0.7-0.4,1.2v2.9
			h-1.7V157h1.5l0.2,0.7c0.2-0.2,0.5-0.4,0.8-0.6c0.3-0.1,0.7-0.2,1.1-0.2c0.7,0,1.3,0.2,1.8,0.6C98.4,158,98.7,158.7,98.7,159.7z"
			/>
		<path style="fill:#FFFFFF;" d="M105.9,162.8h-1.5l-0.2-0.8c-0.5,0.6-1.1,0.9-1.9,0.9c-0.5,0-1-0.1-1.5-0.4c-0.4-0.2-0.8-0.6-1-1
			c-0.2-0.4-0.4-1-0.4-1.6c0-0.6,0.1-1.1,0.4-1.5c0.2-0.4,0.6-0.8,1-1c0.4-0.2,0.9-0.4,1.5-0.4c0.8,0,1.4,0.3,1.9,0.8V155h1.7V162.8
			z M104.2,159.9c0-0.5-0.1-0.9-0.4-1.2c-0.3-0.3-0.6-0.5-1.1-0.5c-0.5,0-0.8,0.2-1.1,0.5c-0.3,0.3-0.4,0.7-0.4,1.2
			c0,0.5,0.1,0.9,0.4,1.2c0.3,0.3,0.6,0.5,1.1,0.5c0.5,0,0.8-0.2,1.1-0.5C104.1,160.8,104.2,160.4,104.2,159.9z"/>
		<path style="fill:#FFFFFF;" d="M107.2,161.5c-0.3-0.4-0.4-1-0.4-1.5s0.1-1.1,0.4-1.5c0.3-0.4,0.6-0.8,1.1-1
			c0.5-0.2,1.1-0.4,1.7-0.4c0.6,0,1.2,0.1,1.7,0.4c0.5,0.2,0.9,0.6,1.1,1c0.3,0.4,0.4,1,0.4,1.5c0,0.6-0.1,1.1-0.4,1.6
			c-0.3,0.4-0.6,0.8-1.1,1c-0.5,0.2-1.1,0.4-1.7,0.4c-0.6,0-1.2-0.1-1.7-0.4C107.9,162.3,107.5,161.9,107.2,161.5z M111.6,159.9
			c0-0.5-0.1-0.9-0.4-1.2c-0.3-0.3-0.7-0.5-1.1-0.5c-0.5,0-0.8,0.2-1.1,0.5c-0.3,0.3-0.4,0.7-0.4,1.2c0,0.5,0.1,0.9,0.4,1.2
			c0.3,0.3,0.6,0.5,1.1,0.5c0.5,0,0.8-0.2,1.1-0.5C111.5,160.8,111.6,160.4,111.6,159.9z"/>
		<path style="fill:#FFFFFF;" d="M119,161.5c0.2,0.2,0.5,0.2,0.9,0.2c0.4,0,0.6-0.1,0.9-0.2c0.2-0.1,0.3-0.3,0.3-0.5
			c0-0.1,0-0.3-0.1-0.3c-0.1-0.1-0.2-0.1-0.4-0.2c-0.2,0-0.5-0.1-0.9-0.1c-0.5-0.1-1-0.2-1.4-0.3c-0.4-0.1-0.6-0.3-0.9-0.5
			c-0.2-0.2-0.3-0.5-0.3-0.9c0-0.4,0.1-0.7,0.3-1c0.2-0.3,0.5-0.5,0.9-0.7c0.4-0.2,0.9-0.2,1.4-0.2c0.8,0,1.5,0.2,2,0.5
			c0.5,0.3,0.8,0.8,0.8,1.4H121c0-0.2-0.1-0.4-0.4-0.5c-0.2-0.1-0.5-0.2-0.8-0.2c-0.3,0-0.6,0.1-0.8,0.2s-0.3,0.3-0.3,0.4
			c0,0.1,0.1,0.2,0.2,0.3c0.1,0.1,0.2,0.1,0.4,0.1c0.2,0,0.4,0.1,0.8,0.1c0.8,0.1,1.5,0.3,1.9,0.5c0.4,0.2,0.7,0.7,0.7,1.2
			c0,0.4-0.1,0.7-0.4,1c-0.2,0.3-0.6,0.5-1,0.7c-0.4,0.2-0.9,0.2-1.5,0.2c-0.9,0-1.6-0.2-2.1-0.5c-0.5-0.4-0.8-0.8-0.9-1.5h1.6
			C118.6,161.1,118.8,161.3,119,161.5z"/>
		<path style="fill:#FFFFFF;" d="M129.5,162.8H128l-0.2-0.7c-0.2,0.2-0.5,0.4-0.8,0.6c-0.3,0.1-0.6,0.2-1.1,0.2
			c-0.7,0-1.3-0.2-1.8-0.6c-0.5-0.4-0.7-1.1-0.7-2.1V157h1.7v2.9c0,0.5,0.1,0.9,0.3,1.2c0.2,0.3,0.5,0.4,0.9,0.4
			c0.4,0,0.8-0.1,1-0.4c0.2-0.3,0.3-0.7,0.3-1.2V157h1.7V162.8z"/>
		<path style="fill:#FFFFFF;" d="M131.9,157.3c0.5-0.2,1-0.4,1.6-0.4c0.6,0,1.2,0.1,1.7,0.3c0.5,0.2,0.8,0.5,1.1,1
			c0.3,0.4,0.4,0.9,0.4,1.5c0,0.2,0,0.4,0,0.5h-4.5v0c0,0.4,0.2,0.7,0.4,1c0.2,0.2,0.6,0.4,1,0.4c0.3,0,0.6-0.1,0.9-0.2
			c0.2-0.1,0.4-0.3,0.5-0.6h1.7c-0.1,0.4-0.2,0.7-0.5,1c-0.2,0.3-0.6,0.5-1,0.7c-0.4,0.2-0.9,0.3-1.4,0.3c-0.7,0-1.3-0.1-1.8-0.4
			s-0.9-0.6-1.2-1c-0.3-0.4-0.4-1-0.4-1.6c0-0.6,0.1-1.1,0.4-1.6C131.1,157.9,131.5,157.6,131.9,157.3z M134.6,158.4
			c-0.3-0.2-0.6-0.3-1-0.3c-0.4,0-0.7,0.1-0.9,0.3s-0.4,0.5-0.5,0.8h2.8C135,158.9,134.8,158.6,134.6,158.4z"/>
		<path style="fill:#FFFFFF;" d="M143.7,159.7v3.1H142v-3c0-1-0.4-1.5-1.2-1.5c-0.4,0-0.8,0.1-1,0.4c-0.2,0.3-0.4,0.7-0.4,1.2v2.9
			h-1.7V157h1.5l0.2,0.7c0.2-0.2,0.5-0.4,0.8-0.6c0.3-0.1,0.7-0.2,1.1-0.2c0.7,0,1.3,0.2,1.8,0.6C143.4,158,143.7,158.7,143.7,159.7
			z M140,156.2h-1V156c0-0.3,0.1-0.6,0.3-0.9c0.2-0.2,0.5-0.3,0.8-0.3c0.2,0,0.3,0,0.4,0.1c0.1,0,0.2,0.1,0.4,0.2
			c0.1,0.1,0.2,0.1,0.2,0.2c0.1,0,0.1,0.1,0.2,0.1c0.1,0,0.2,0,0.3-0.1c0.1-0.1,0.1-0.2,0.1-0.3h1v0.2c0,0.3-0.1,0.6-0.3,0.9
			c-0.2,0.2-0.5,0.3-0.8,0.3c-0.2,0-0.3,0-0.4-0.1c-0.1-0.1-0.2-0.1-0.4-0.2c-0.1-0.1-0.2-0.1-0.2-0.1c-0.1,0-0.1,0-0.2,0
			c-0.1,0-0.2,0-0.3,0.1C140.1,156,140,156.1,140,156.2z"/>
		<path style="fill:#FFFFFF;" d="M144.9,161.5c-0.3-0.4-0.4-1-0.4-1.5s0.1-1.1,0.4-1.5c0.3-0.4,0.6-0.8,1.1-1
			c0.5-0.2,1.1-0.4,1.7-0.4c0.6,0,1.2,0.1,1.7,0.4c0.5,0.2,0.9,0.6,1.1,1c0.3,0.4,0.4,1,0.4,1.5c0,0.6-0.1,1.1-0.4,1.6
			c-0.3,0.4-0.6,0.8-1.1,1c-0.5,0.2-1.1,0.4-1.7,0.4c-0.6,0-1.2-0.1-1.7-0.4C145.5,162.3,145.2,161.9,144.9,161.5z M149.3,159.9
			c0-0.5-0.1-0.9-0.4-1.2c-0.3-0.3-0.7-0.5-1.1-0.5c-0.5,0-0.8,0.2-1.1,0.5c-0.3,0.3-0.4,0.7-0.4,1.2c0,0.5,0.1,0.9,0.4,1.2
			c0.3,0.3,0.6,0.5,1.1,0.5c0.5,0,0.8-0.2,1.1-0.5C149.1,160.8,149.3,160.4,149.3,159.9z"/>
		<path style="fill:#FFFFFF;" d="M153.7,161.5c0.2,0.2,0.5,0.2,0.9,0.2c0.4,0,0.6-0.1,0.9-0.2c0.2-0.1,0.3-0.3,0.3-0.5
			c0-0.1,0-0.3-0.1-0.3c-0.1-0.1-0.2-0.1-0.4-0.2c-0.2,0-0.5-0.1-0.9-0.1c-0.5-0.1-1-0.2-1.4-0.3s-0.6-0.3-0.9-0.5
			c-0.2-0.2-0.3-0.5-0.3-0.9c0-0.4,0.1-0.7,0.3-1c0.2-0.3,0.5-0.5,0.9-0.7c0.4-0.2,0.9-0.2,1.4-0.2c0.8,0,1.5,0.2,2,0.5
			c0.5,0.3,0.8,0.8,0.8,1.4h-1.6c0-0.2-0.1-0.4-0.4-0.5c-0.2-0.1-0.5-0.2-0.8-0.2c-0.3,0-0.6,0.1-0.8,0.2s-0.3,0.3-0.3,0.4
			c0,0.1,0.1,0.2,0.2,0.3c0.1,0.1,0.2,0.1,0.4,0.1c0.2,0,0.4,0.1,0.8,0.1c0.8,0.1,1.5,0.3,1.9,0.5c0.4,0.2,0.7,0.7,0.7,1.2
			c0,0.4-0.1,0.7-0.4,1c-0.2,0.3-0.6,0.5-1,0.7c-0.4,0.2-0.9,0.2-1.5,0.2c-0.9,0-1.6-0.2-2.1-0.5c-0.5-0.4-0.8-0.8-0.9-1.5h1.6
			C153.3,161.1,153.4,161.3,153.7,161.5z"/>
	</g>
	<g>
		<g>
			<path style="fill:#FFFFFF;" d="M52.9,77.7v8.2h-10v28.7h-9.7V85.9h-10v-8.2H52.9z"/>
			<path style="fill:#FFFFFF;" d="M81.9,95.3c1.1,1.9,1.7,4.2,1.7,6.6c0,2.8-0.6,5.1-1.9,7.1c-1.3,2-3,3.4-5.2,4.4
				c-2.2,1-4.7,1.5-7.4,1.5c-2.8,0-5.4-0.5-7.5-1.6c-2.2-1.1-3.9-2.6-5.1-4.5c-1.2-1.9-1.9-4-2-6.3h9.2c0.2,1.4,0.8,2.6,1.8,3.6
				c1,0.9,2.2,1.4,3.6,1.4c1.4,0,2.6-0.5,3.7-1.5c1-1,1.6-2.3,1.6-4.1c0-1.6-0.5-3-1.5-4c-1-1.1-2.2-1.6-3.8-1.6
				c-1.1,0-2.1,0.3-3,0.8c-1,0.5-1.6,1.4-2,2.5h-9l0.9-22h25.5v7.7h-17l-0.3,6.3c1.9-1.6,4.2-2.4,6.9-2.4c2.3,0,4.4,0.5,6.4,1.6
				C79.3,91.9,80.8,93.4,81.9,95.3z"/>
			<path style="fill:#FFFFFF;" d="M125.9,95.3c1.1,1.9,1.7,4.2,1.7,6.6c0,2.8-0.6,5.1-1.9,7.1c-1.3,2-3,3.4-5.2,4.4
				c-2.2,1-4.7,1.5-7.4,1.5c-2.8,0-5.4-0.5-7.5-1.6c-2.2-1.1-3.9-2.6-5.1-4.5c-1.2-1.9-1.9-4-2-6.3h9.2c0.2,1.4,0.8,2.6,1.8,3.6
				c1,0.9,2.2,1.4,3.6,1.4c1.4,0,2.6-0.5,3.7-1.5c1-1,1.6-2.3,1.6-4.1c0-1.6-0.5-3-1.5-4c-1-1.1-2.2-1.6-3.8-1.6
				c-1.1,0-2.1,0.3-3,0.8c-1,0.5-1.6,1.4-2,2.5h-9l0.9-22h25.5v7.7h-17l-0.3,6.3c1.9-1.6,4.2-2.4,6.9-2.4c2.3,0,4.4,0.5,6.4,1.6
				C123.3,91.9,124.8,93.4,125.9,95.3z"/>
			<path style="fill:#FFFFFF;" d="M134.8,82.4c2.8-3.3,6.7-5,11.6-5c2.4,0,4.5,0.4,6.5,1.3c2,0.9,3.6,2.1,4.9,3.8
				c1.3,1.7,2.1,3.7,2.3,6h-9.1c-0.3-1.3-0.9-2.2-1.9-2.8c-0.9-0.6-2.1-0.9-3.5-0.9c-2,0-3.5,0.7-4.5,2.2c-1.1,1.5-1.6,3.6-1.6,6.6
				v0.4l0.6-0.7c0.9-1.1,2-1.9,3.4-2.5c1.4-0.6,2.9-0.9,4.4-0.9c2.5,0,4.7,0.5,6.6,1.6c1.9,1.1,3.4,2.6,4.5,4.5
				c1.1,1.9,1.6,4.1,1.6,6.5c0,2.5-0.6,4.7-1.8,6.6c-1.2,1.9-2.9,3.4-5,4.4c-2.2,1-4.7,1.6-7.5,1.6c-2.6,0-4.9-0.5-6.9-1.4
				c-2-0.9-3.7-2.3-5.1-4.2c-2.4-3.3-3.6-7.5-3.6-12.7C130.6,90.5,132,85.7,134.8,82.4z M146.3,96.8c-1.5,0-2.7,0.5-3.7,1.6
				c-0.9,1.1-1.4,2.4-1.4,4c0,1.6,0.5,3,1.4,4c0.9,1.1,2.2,1.6,3.6,1.6c1.5,0,2.7-0.5,3.6-1.6c0.9-1.1,1.4-2.4,1.4-4
				c0-1.6-0.5-3-1.4-4C148.9,97.3,147.7,96.8,146.3,96.8z"/>
			<circle style="fill:#FAC600;" cx="91.2" cy="96.3" r="5"/>
		</g>
		<path style="fill:#6F2D00;" d="M87.6,122.4c1,2.9,2.5,5.5,4.4,7.6c1.9,2.1,4.2,3.7,6.6,4.8c4.9,2.2,10.5,2.5,15.9,1.8
			c5.4-0.8,10.7-2.7,15.6-5.3c4.9-2.6,9.6-5.9,13.8-9.7c2.5-2.3,6.1-1.8,8.1,0.9c2,2.8,1.7,6.8-0.8,9.1c-0.2,0.2-0.4,0.3-0.6,0.5
			l-0.1,0c-5.4,3.7-11.1,6.8-17.1,8.9c-6,2.2-12.2,3.4-18.6,3.4c-3.2,0-6.3-0.3-9.4-1.1c-3.1-0.8-6.2-2-9-3.7
			c-2.8-1.8-5.4-4.1-7.3-6.9c-2-2.8-3.3-6.1-4-9.5c-0.2-0.8,0.3-1.6,1-1.8C86.7,121.3,87.4,121.7,87.6,122.4L87.6,122.4z"/>
		<path style="fill:#FAC600;" d="M87,120.1c1,2.7,2.6,5.2,4.6,7.2c2,2,4.4,3.5,7,4.6c5.2,2.1,11.1,2.4,16.7,1.7
			c5.7-0.7,11.2-2.5,16.5-4.9c5.2-2.4,10.1-5.6,14.5-9.2c2.6-2.1,6.5-1.7,8.6,0.9c2.1,2.6,1.7,6.5-0.9,8.6c-0.2,0.2-0.4,0.3-0.6,0.4
			l-0.1,0c-5.7,3.5-11.7,6.4-18,8.4c-6.3,2-12.9,3.2-19.6,3.2c-3.3,0-6.7-0.3-10-1c-3.3-0.7-6.5-1.9-9.5-3.5
			c-2.9-1.7-5.6-3.9-7.7-6.6c-2.1-2.7-3.5-5.8-4.2-9c-0.2-0.7,0.3-1.5,1-1.7C86.1,119.1,86.8,119.5,87,120.1L87,120.1z"/>
		<path style="fill:#6F2D00;" d="M102.2,73c5.2-4.4,11-8.1,17.2-10.9c6.2-2.8,12.9-4.7,20-5.2c3.5-0.2,7.1-0.1,10.7,0.7
			c3.6,0.8,7.2,2.1,10.5,4.3c3.3,2.2,6.3,5.3,8.4,9c2.1,3.7,3.3,8,3.6,12.2l0,0.1c0.3,3.4-2.1,6.3-5.3,6.6c-3.2,0.3-6-2.2-6.2-5.5
			c0-0.2,0-0.5,0-0.7c0.1-2.6-0.4-5.2-1.4-7.5c-1-2.3-2.5-4.4-4.5-6.1c-2-1.7-4.5-3-7.2-3.9c-2.7-0.9-5.6-1.4-8.6-1.6
			c-6-0.3-12.2,0.7-18.2,2.6c-6,1.9-11.8,4.8-17.2,8.4l0,0c-0.7,0.5-1.7,0.3-2.2-0.5C101.4,74.5,101.6,73.6,102.2,73z"/>
		<path style="fill:#FAC600;" d="M102.2,73c5.3-4.6,11.3-8.4,17.8-11.5c6.5-3,13.5-5.1,20.9-5.8c3.7-0.3,7.5-0.3,11.3,0.4
			c3.8,0.6,7.7,1.9,11.3,4c3.6,2.1,6.8,5.1,9.1,8.8c2.3,3.6,3.8,7.9,4.2,12.1l0,0.1c0.4,3.3-2,6.4-5.3,6.8s-6.4-2-6.8-5.3
			c0-0.2,0-0.5,0-0.7c0-2.6-0.6-5.2-1.7-7.4c-1.1-2.3-2.8-4.3-5-6c-2.2-1.6-4.8-2.9-7.7-3.7c-2.9-0.8-6-1.2-9.1-1.3
			c-6.3-0.1-12.8,1.1-19.1,3.2c-6.2,2.1-12.3,5.2-17.8,9l0,0c-0.8,0.5-1.8,0.3-2.3-0.4C101.4,74.5,101.5,73.5,102.2,73z"/>
	</g>
</g>
</svg>
